<svg width="145" height="49" viewBox="0 0 145 49" fill="none" xmlns="http://www.w3.org/2000/svg">
<path opacity="0.4" d="M7.88271 20.6487C8.40271 29.7187 9.77271 36.8287 12.3827 40.8087C14.9927 44.7887 20.9427 48.5087 35.9427 48.3087C50.9427 48.1087 57.5327 39.3687 60.4727 30.8887C63.4127 22.4087 63.5427 15.7487 62.0427 12.3587C60.5427 8.96866 53.6927 3.87867 46.2527 2.76867C38.8127 1.65867 20.2827 2.96867 14.8727 4.20867C9.4527 5.44867 7.37271 10.9287 7.89271 20.6487H7.88271Z" fill="url(#paint0_linear_8_1725)"/>
<path opacity="0.2" d="M60.4726 29.9787C57.5326 38.4587 50.9426 47.1987 35.9426 47.3987C20.9426 47.5987 14.9926 43.8787 12.3826 39.8987C9.77265 35.9187 8.40265 28.8087 7.88265 19.7387C7.83265 18.8287 7.81265 17.9687 7.81265 17.1387C7.79265 18.2387 7.81265 19.4087 7.88265 20.6487C8.40265 29.7187 9.77265 36.8287 12.3826 40.8087C14.9926 44.7887 20.9426 48.5087 35.9426 48.3087C50.9426 48.1087 57.5326 39.3687 60.4726 30.8887C62.3226 25.5587 63.0527 20.9487 62.9726 17.4087C62.9226 20.8087 62.1626 25.0787 60.4726 29.9687V29.9787Z" fill="#17222B"/>
<path opacity="0.4" d="M137.003 20.6487C136.483 29.7187 135.113 36.8287 132.503 40.8087C129.893 44.7887 123.943 48.5087 108.943 48.3087C93.9427 48.1087 87.3527 39.3687 84.4127 30.8887C81.4727 22.4087 81.3427 15.7487 82.8427 12.3587C84.3427 8.96866 91.1927 3.87867 98.6327 2.76867C106.073 1.65867 124.603 2.96867 130.013 4.20867C135.423 5.44867 137.513 10.9287 136.993 20.6487H137.003Z" fill="url(#paint1_linear_8_1725)"/>
<path opacity="0.2" d="M84.4127 29.9787C87.3527 38.4587 93.9427 47.1987 108.943 47.3987C123.943 47.5987 129.893 43.8787 132.503 39.8987C135.113 35.9187 136.483 28.8087 137.003 19.7387C137.053 18.8287 137.073 17.9687 137.073 17.1387C137.093 18.2387 137.073 19.4087 137.003 20.6487C136.483 29.7187 135.113 36.8287 132.503 40.8087C129.893 44.7887 123.943 48.5087 108.943 48.3087C93.9427 48.1087 87.3527 39.3687 84.4127 30.8887C82.5627 25.5587 81.8327 20.9487 81.9127 17.4087C81.9627 20.8087 82.7227 25.0787 84.4127 29.9687V29.9787Z" fill="#17222B"/>
<path d="M81.0127 13.6887C81.0127 13.6887 79.6527 11.8487 78.0127 11.8487H66.8827C65.2427 11.8487 63.8927 13.6687 63.8827 13.6887L62.1827 12.4687C62.2627 12.3587 64.1527 9.75867 66.8827 9.75867H78.0127C80.7327 9.75867 82.6327 12.3587 82.7127 12.4687L81.0227 13.6887H81.0127Z" fill="#183354"/>
<path style="mix-blend-mode:overlay" opacity="0.4" d="M62.5628 22.7487C62.1728 25.1987 61.4928 27.9287 60.4728 30.8887C60.1128 31.9387 59.6928 32.9887 59.2028 34.0387L27.8828 2.71866C32.8228 2.39866 38.1328 2.24866 42.2328 2.42866L62.5628 22.7587V22.7487ZM9.76275 7.99866C8.16275 10.7887 7.57275 14.9887 7.88275 20.6487C8.11275 24.6687 8.51275 28.2987 9.11275 31.4387L25.2928 47.6187C28.2128 48.1087 31.7128 48.3687 35.9528 48.3187C40.6328 48.2587 44.4928 47.3687 47.6728 45.9087L9.76275 7.99866Z" fill="url(#paint2_linear_8_1725)"/>
<path style="mix-blend-mode:overlay" opacity="0.4" d="M137.073 18.1487C137.073 18.9487 137.053 19.7787 137.003 20.6487C136.773 24.6887 136.373 28.3287 135.763 31.4887L106.633 2.34867C111.573 2.34867 117.313 2.66867 122.043 3.11867L137.073 18.1487ZM87.9626 7.07867C85.4226 8.81867 83.5426 10.7687 82.8426 12.3587C81.6326 15.1087 81.4826 19.9887 83.0326 26.2487L104.773 47.9887C106.093 48.1687 107.463 48.2887 108.933 48.3087C117.253 48.4187 122.783 47.3187 126.513 45.6387L87.9626 7.08867V7.07867Z" fill="url(#paint3_linear_8_1725)"/>
<path d="M62.4927 15.7987C64.3227 15.8887 66.8427 14.2787 66.5827 13.0787C66.3227 11.8787 61.7827 4.39867 49.7027 1.26867C37.6227 -1.86133 12.4727 1.69867 8.8227 2.39867C5.1627 3.08867 0.982699 3.61867 0.552699 4.04867C0.112699 4.47867 -0.237301 10.8887 0.202699 11.1887C0.632699 11.4887 2.4227 12.4387 2.5927 13.7087C2.7627 14.9687 3.1127 20.7987 3.1627 21.5387C3.2027 22.2787 3.5827 22.8587 4.3527 22.8587H7.2127C7.7727 22.8587 8.4327 22.5787 8.5127 21.5787C8.6027 20.5787 8.6827 14.6987 9.9027 11.4587C11.1227 8.21867 14.1227 5.04867 27.0427 3.99867C39.9627 2.95867 48.6627 4.64867 53.7927 6.82867C58.9227 8.99867 62.4927 15.7887 62.4927 15.7887V15.7987Z" fill="#183354"/>
<path d="M82.3927 15.7987C80.5627 15.8887 78.0427 14.2787 78.3027 13.0787C78.5627 11.8787 83.1027 4.39867 95.1927 1.26867C107.273 -1.86133 132.423 1.69867 136.073 2.39867C139.723 3.09867 143.903 3.61867 144.333 4.04867C144.773 4.47867 145.123 10.8887 144.683 11.1887C144.243 11.4887 142.463 12.4387 142.293 13.7087C142.123 14.9687 141.773 20.7987 141.723 21.5387C141.683 22.2787 141.303 22.8587 140.533 22.8587H137.673C137.103 22.8587 136.453 22.5787 136.373 21.5787C136.283 20.5787 136.203 14.6987 134.983 11.4587C133.763 8.21867 130.763 5.04867 117.843 3.99867C104.923 2.95867 96.2227 4.64867 91.0927 6.82867C85.9627 8.99867 82.3927 15.7887 82.3927 15.7887V15.7987Z" fill="#183354"/>
<defs>
<linearGradient id="paint0_linear_8_1725" x1="35.3927" y1="54.1287" x2="35.3927" y2="1.36867" gradientUnits="userSpaceOnUse">
<stop stop-color="#17222B"/>
<stop offset="1" stop-color="#17222B" stop-opacity="0.4"/>
</linearGradient>
<linearGradient id="paint1_linear_8_1725" x1="109.493" y1="-0.00133504" x2="109.493" y2="-0.00133504" gradientUnits="userSpaceOnUse">
<stop stop-color="#17222B"/>
<stop offset="1" stop-color="#17222B" stop-opacity="0.4"/>
</linearGradient>
<linearGradient id="paint2_linear_8_1725" x1="7.80275" y1="25.3287" x2="62.5628" y2="25.3287" gradientUnits="userSpaceOnUse">
<stop stop-color="white" stop-opacity="0.4"/>
<stop offset="1" stop-color="white" stop-opacity="0.1"/>
</linearGradient>
<linearGradient id="paint3_linear_8_1725" x1="81.9026" y1="25.3387" x2="137.073" y2="25.3387" gradientUnits="userSpaceOnUse">
<stop stop-color="white" stop-opacity="0.4"/>
<stop offset="1" stop-color="white" stop-opacity="0.1"/>
</linearGradient>
</defs>
</svg>
