<svg width="120" height="40" viewBox="0 0 120 40" fill="none" xmlns="http://www.w3.org/2000/svg">
<path d="M75.27 8.05836C75.27 8.05836 77.97 12.4884 80.95 12.4084C83.93 12.3384 100.38 7.58836 106.17 5.63836C111.95 3.67836 117.82 2.74836 119.12 2.56836C116.07 2.04836 111.3 0.658363 104.41 1.07836C96.56 1.55836 87.09 4.98836 75.27 8.05836Z" fill="#17222B"/>
<path d="M44.85 8.05837C44.85 8.05837 42.15 12.4884 39.17 12.4084C36.19 12.3384 19.74 7.58837 13.95 5.63837C8.17 3.67837 2.3 2.74837 1 2.56837C4.05 2.03837 8.82 0.658367 15.71 1.07837C23.56 1.55837 33.03 4.98837 44.85 8.05837Z" fill="#17222B"/>
<path d="M96.11 19.0684C89.98 20.3684 83.09 25.3084 79.56 31.2184C82.06 35.4484 87.97 39.7384 98.93 38.9784C109.89 38.2184 115.09 24.8984 115.43 21.9984C112.66 20.3684 104.94 18.4684 96.11 19.0684Z" fill="white"/>
<path d="M96.11 19.0684C92.98 19.7284 89.67 21.3484 86.69 23.5484C86.34 25.0384 86.27 26.6184 86.61 28.2084C87.84 33.8784 93.4 37.4784 99.02 36.2584C104.65 35.0384 108.21 29.4584 106.99 23.7884C106.61 22.0384 105.78 20.5184 104.7 19.2384C102.07 18.9584 99.16 18.8584 96.11 19.0684Z" fill="url(#paint0_linear_5_1518)"/>
<path d="M101.23 25.0484C101.77 27.5084 100.22 29.9384 97.77 30.4684C95.32 30.9984 92.91 29.4384 92.38 26.9684C91.85 24.5084 93.39 22.0784 95.84 21.5484C98.28 21.0184 100.7 22.5884 101.23 25.0484Z" fill="#3B1510"/>
<g style="mix-blend-mode:multiply">
<path d="M96.11 19.0683C92.98 19.7283 89.67 21.3483 86.69 23.5483C86.34 25.0383 86.27 26.6183 86.61 28.2083C86.64 28.3383 86.7 28.4483 86.73 28.5883C90.14 26.6383 97.68 23.0783 106.82 23.2183C106.4 21.7083 105.65 20.3783 104.7 19.2483C102.07 18.9683 99.16 18.8683 96.11 19.0783V19.0683Z" fill="#C4B2A0"/>
</g>
<path d="M77.67 32.3383C77.67 32.3383 86.78 21.6783 97.15 20.2683C110.66 19.9383 114.68 22.9783 114.68 22.9783C114.68 23.6283 114.35 25.4683 114.35 25.4683C114.35 25.4683 117.77 22.1083 119.13 19.9083C111.64 17.9283 104.64 17.1083 95.47 17.9783C86.3 18.8483 77.94 23.5184 77.94 23.5184C77.94 23.5184 83.6 21.4284 88.44 20.6984C85.31 22.5684 79.34 27.4583 77.67 32.3383Z" fill="#17222B"/>
<path d="M85.85 36.8683C88.01 37.7683 102.25 41.7384 110.62 32.0284C108.66 35.9984 99.57 43.7883 85.85 36.8683Z" fill="#F09E78"/>
<path d="M105.04 24.6384C105.04 25.8784 103.82 26.8884 102.3 26.8884C100.78 26.8884 99.56 25.8784 99.56 24.6384C99.56 23.3984 100.79 22.3884 102.3 22.3884C103.81 22.3884 105.04 23.3884 105.04 24.6384Z" fill="white"/>
<path d="M84.69 17.2784C84.69 17.2784 93.23 14.3484 105.44 15.1684C99.09 13.3784 90.46 14.4084 89.71 14.4684C88.95 14.5184 86.18 15.8184 84.69 17.2884V17.2784Z" fill="#F09E78"/>
<path d="M24 19.0684C30.13 20.3684 37.02 25.3084 40.55 31.2184C38.06 35.4484 32.14 39.7384 21.18 38.9784C10.22 38.2184 5.02 24.8984 4.69 21.9984C7.46 20.3684 15.18 18.4684 24 19.0684Z" fill="white"/>
<path d="M24 19.0684C27.12 19.7284 30.44 21.3484 33.42 23.5484C33.77 25.0384 33.84 26.6184 33.5 28.2084C32.27 33.8784 26.71 37.4784 21.08 36.2584C15.45 35.0384 11.89 29.4584 13.11 23.7884C13.49 22.0384 14.32 20.5184 15.4 19.2384C18.03 18.9584 20.94 18.8584 23.99 19.0684H24Z" fill="url(#paint1_linear_5_1518)"/>
<path d="M18.89 25.0484C18.36 27.5084 19.9 29.9384 22.35 30.4684C24.8 30.9984 27.21 29.4384 27.74 26.9684C28.28 24.5084 26.73 22.0784 24.28 21.5484C21.84 21.0184 19.42 22.5884 18.89 25.0484Z" fill="#3B1510"/>
<g style="mix-blend-mode:multiply">
<path d="M24 19.0683C27.12 19.7283 30.44 21.3483 33.42 23.5483C33.77 25.0383 33.84 26.6183 33.5 28.2083C33.47 28.3383 33.41 28.4483 33.38 28.5883C29.97 26.6383 22.43 23.0783 13.29 23.2183C13.72 21.7083 14.46 20.3783 15.41 19.2483C18.04 18.9683 20.95 18.8683 24 19.0783V19.0683Z" fill="#C4B2A0"/>
</g>
<path d="M42.46 32.3383C42.46 32.3383 33.34 21.6783 22.98 20.2683C9.47001 19.9383 5.46001 22.9783 5.46001 22.9783C5.46001 23.6283 5.79001 25.4683 5.79001 25.4683C5.79001 25.4683 2.37001 22.1083 1.01001 19.9083C8.50001 17.9283 15.5 17.1083 24.67 17.9783C33.84 18.8483 42.19 23.5184 42.19 23.5184C42.19 23.5184 36.53 21.4284 31.69 20.6984C34.82 22.5684 40.79 27.4583 42.46 32.3383Z" fill="#17222B"/>
<path d="M34.27 36.8683C32.11 37.7683 17.87 41.7384 9.48999 32.0284C11.45 35.9984 20.54 43.7883 34.27 36.8683Z" fill="#F09E78"/>
<path d="M26.07 27.2383C26.07 28.4783 27.3 29.4883 28.81 29.4883C30.32 29.4883 31.55 28.4783 31.55 27.2383C31.55 25.9983 30.32 24.9883 28.81 24.9883C27.3 24.9883 26.07 25.9883 26.07 27.2383Z" fill="white"/>
<path d="M35.43 17.2784C35.43 17.2784 26.89 14.3484 14.68 15.1684C21.03 13.3784 29.66 14.4084 30.42 14.4684C31.18 14.5184 33.94 15.8184 35.44 17.2884L35.43 17.2784Z" fill="#F09E78"/>
<defs>
<linearGradient id="paint0_linear_5_1518" x1="96.82" y1="33.3484" x2="96.82" y2="18.1684" gradientUnits="userSpaceOnUse">
<stop stop-color="#7D4C36"/>
<stop offset="1" stop-color="#542624"/>
</linearGradient>
<linearGradient id="paint1_linear_5_1518" x1="23.3" y1="0.99837" x2="23.3" y2="0.99837" gradientUnits="userSpaceOnUse">
<stop stop-color="#7D4C36"/>
<stop offset="1" stop-color="#542624"/>
</linearGradient>
</defs>
</svg>
