<svg width="120" height="40" viewBox="0 0 120 40" fill="none" xmlns="http://www.w3.org/2000/svg">
<path d="M96.1 19.0749C89.97 20.3749 83.08 25.3149 79.55 31.2249C82.05 35.4549 87.96 39.7449 98.92 38.9849C109.88 38.2249 115.08 24.9049 115.42 22.0049C112.65 20.3749 104.93 18.4749 96.1 19.0749Z" fill="white"/>
<path d="M96.1 19.0749C92.97 19.7349 89.66 21.3549 86.68 23.5549C86.33 25.0449 86.26 26.6249 86.6 28.2149C87.83 33.8849 93.39 37.4849 99.01 36.2649C104.64 35.0449 108.2 29.4649 106.98 23.7949C106.6 22.0449 105.77 20.5249 104.69 19.2449C102.06 18.9649 99.15 18.8649 96.1 19.0749Z" fill="url(#paint0_linear_5_1517)"/>
<path d="M101.22 25.0549C101.76 27.5149 100.21 29.9449 97.76 30.4749C95.31 31.0049 92.9 29.4449 92.37 26.9749C91.84 24.5149 93.38 22.0849 95.83 21.5549C98.27 21.0249 100.69 22.5949 101.22 25.0549Z" fill="#3B1510"/>
<g style="mix-blend-mode:multiply">
<path d="M96.1 19.0749C92.97 19.7349 89.66 21.3549 86.68 23.5549C86.33 25.0449 86.26 26.6249 86.6 28.2149C86.63 28.3449 86.69 28.4549 86.72 28.5949C90.13 26.6449 97.67 23.0849 106.81 23.2249C106.39 21.7149 105.64 20.3849 104.69 19.2549C102.06 18.9749 99.15 18.8749 96.1 19.0849V19.0749Z" fill="#C4B2A0"/>
</g>
<path d="M77.66 32.3449C77.66 32.3449 86.77 21.6849 97.14 20.2749C110.65 19.9449 114.67 22.9849 114.67 22.9849C114.67 23.6349 114.34 25.4749 114.34 25.4749C114.34 25.4749 117.76 22.1149 119.12 19.9149C111.63 17.9349 104.63 17.1149 95.46 17.9849C86.29 18.8549 77.93 23.5249 77.93 23.5249C77.93 23.5249 83.59 21.4349 88.43 20.7049C85.3 22.5749 79.33 27.4649 77.66 32.3449Z" fill="#17222B"/>
<path d="M85.84 36.8749C88 37.7749 102.24 41.7449 110.61 32.0349C108.65 36.0049 99.56 43.7949 85.84 36.8749Z" fill="#F09E78"/>
<path d="M105.03 24.6449C105.03 25.8849 103.81 26.8949 102.29 26.8949C100.77 26.8949 99.55 25.8849 99.55 24.6449C99.55 23.4049 100.78 22.3949 102.29 22.3949C103.8 22.3949 105.03 23.3949 105.03 24.6449Z" fill="white"/>
<path d="M84.68 17.2849C84.68 17.2849 93.22 14.3549 105.43 15.1749C99.08 13.3849 90.45 14.4149 89.7 14.4749C88.94 14.5249 86.17 15.8249 84.68 17.2949V17.2849Z" fill="#F09E78"/>
<path d="M23.99 19.0749C30.12 20.3749 37.01 25.3149 40.54 31.2249C38.05 35.4549 32.13 39.7449 21.17 38.9849C10.21 38.2249 5.00999 24.9049 4.67999 22.0049C7.44999 20.3749 15.17 18.4749 23.99 19.0749Z" fill="white"/>
<path d="M23.99 19.0749C27.11 19.7349 30.43 21.3549 33.41 23.5549C33.76 25.0449 33.83 26.6249 33.49 28.2149C32.26 33.8849 26.7 37.4849 21.07 36.2649C15.44 35.0449 11.88 29.4649 13.1 23.7949C13.48 22.0449 14.31 20.5249 15.39 19.2449C18.02 18.9649 20.93 18.8649 23.98 19.0749H23.99Z" fill="url(#paint1_linear_5_1517)"/>
<path d="M18.88 25.0549C18.35 27.5149 19.89 29.9449 22.34 30.4749C24.79 31.0049 27.2 29.4449 27.73 26.9749C28.27 24.5149 26.72 22.0849 24.27 21.5549C21.83 21.0249 19.41 22.5949 18.88 25.0549Z" fill="#3B1510"/>
<g style="mix-blend-mode:multiply">
<path d="M23.99 19.0749C27.11 19.7349 30.43 21.3549 33.41 23.5549C33.76 25.0449 33.83 26.6249 33.49 28.2149C33.46 28.3449 33.4 28.4549 33.37 28.5949C29.96 26.6449 22.42 23.0849 13.28 23.2249C13.71 21.7149 14.45 20.3849 15.4 19.2549C18.03 18.9749 20.94 18.8749 23.99 19.0849V19.0749Z" fill="#C4B2A0"/>
</g>
<path d="M42.45 32.3449C42.45 32.3449 33.33 21.6849 22.97 20.2749C9.46 19.9449 5.45 22.9849 5.45 22.9849C5.45 23.6349 5.78 25.4749 5.78 25.4749C5.78 25.4749 2.36 22.1149 1 19.9149C8.49 17.9349 15.49 17.1149 24.66 17.9849C33.83 18.8549 42.18 23.5249 42.18 23.5249C42.18 23.5249 36.52 21.4349 31.68 20.7049C34.81 22.5749 40.78 27.4649 42.45 32.3449Z" fill="#17222B"/>
<path d="M34.26 36.8749C32.1 37.7749 17.86 41.7449 9.47998 32.0349C11.44 36.0049 20.53 43.7949 34.26 36.8749Z" fill="#F09E78"/>
<path d="M26.06 27.2449C26.06 28.4849 27.29 29.4949 28.8 29.4949C30.31 29.4949 31.54 28.4849 31.54 27.2449C31.54 26.0049 30.31 24.9949 28.8 24.9949C27.29 24.9949 26.06 25.9949 26.06 27.2449Z" fill="white"/>
<path d="M35.42 17.2849C35.42 17.2849 26.88 14.3549 14.67 15.1749C21.02 13.3849 29.65 14.4149 30.41 14.4749C31.17 14.5249 33.93 15.8249 35.43 17.2949L35.42 17.2849Z" fill="#F09E78"/>
<path d="M75.36 9.47489C78.37 10.1049 107 7.31489 107.69 6.20489C108.38 5.09489 96.31 -0.285109 85.89 1.28489C75.47 2.85489 72.07 8.78489 75.35 9.47489H75.36Z" fill="#17222B"/>
<path d="M44.74 9.47489C41.73 10.1049 13.1 7.31489 12.41 6.20489C11.72 5.09489 23.79 -0.285109 34.21 1.28489C44.63 2.85489 48.03 8.78489 44.75 9.47489H44.74Z" fill="#17222B"/>
<defs>
<linearGradient id="paint0_linear_5_1517" x1="96.81" y1="33.3549" x2="96.81" y2="18.1749" gradientUnits="userSpaceOnUse">
<stop stop-color="#7D4C36"/>
<stop offset="1" stop-color="#542624"/>
</linearGradient>
<linearGradient id="paint1_linear_5_1517" x1="23.29" y1="1.00489" x2="23.29" y2="1.00489" gradientUnits="userSpaceOnUse">
<stop stop-color="#7D4C36"/>
<stop offset="1" stop-color="#542624"/>
</linearGradient>
</defs>
</svg>
