<svg width="120" height="40" viewBox="0 0 120 40" fill="none" xmlns="http://www.w3.org/2000/svg">
<path d="M96.11 19.07C89.98 20.37 83.09 25.31 79.56 31.22C82.06 35.45 87.97 39.74 98.93 38.98C109.89 38.22 115.09 24.9 115.43 22C112.66 20.37 104.94 18.47 96.11 19.07Z" fill="white"/>
<path d="M96.11 19.07C92.98 19.73 89.67 21.35 86.69 23.55C86.34 25.04 86.27 26.62 86.61 28.21C87.84 33.88 93.4 37.48 99.02 36.26C104.65 35.04 108.21 29.46 106.99 23.79C106.61 22.04 105.78 20.52 104.7 19.24C102.07 18.96 99.16 18.86 96.11 19.07Z" fill="url(#paint0_linear_5_1516)"/>
<path d="M101.23 25.05C101.77 27.51 100.22 29.94 97.77 30.47C95.32 31 92.91 29.44 92.38 26.97C91.85 24.51 93.39 22.08 95.84 21.55C98.28 21.02 100.7 22.59 101.23 25.05Z" fill="#3B1510"/>
<g style="mix-blend-mode:multiply">
<path d="M96.11 19.07C92.98 19.73 89.67 21.35 86.69 23.55C86.34 25.04 86.27 26.62 86.61 28.21C86.64 28.34 86.7 28.45 86.73 28.59C90.14 26.64 97.68 23.08 106.82 23.22C106.4 21.71 105.65 20.38 104.7 19.25C102.07 18.97 99.16 18.87 96.11 19.08V19.07Z" fill="#C4B2A0"/>
</g>
<path d="M77.67 32.34C77.67 32.34 86.78 21.68 97.15 20.27C110.66 19.94 114.68 22.98 114.68 22.98C114.68 23.63 114.35 25.47 114.35 25.47C114.35 25.47 117.77 22.11 119.13 19.91C111.64 17.93 104.64 17.11 95.47 17.98C86.3 18.85 77.94 23.52 77.94 23.52C77.94 23.52 83.6 21.43 88.44 20.7C85.31 22.57 79.34 27.46 77.67 32.34Z" fill="#17222B"/>
<path d="M85.85 36.87C88.01 37.77 102.25 41.74 110.62 32.03C108.66 36 99.57 43.79 85.85 36.87Z" fill="#F09E78"/>
<path d="M105.04 24.64C105.04 25.88 103.82 26.89 102.3 26.89C100.78 26.89 99.56 25.88 99.56 24.64C99.56 23.4 100.79 22.39 102.3 22.39C103.81 22.39 105.04 23.39 105.04 24.64Z" fill="white"/>
<path d="M84.69 17.28C84.69 17.28 93.23 14.35 105.44 15.17C99.09 13.38 90.46 14.41 89.71 14.47C88.95 14.52 86.18 15.82 84.69 17.29V17.28Z" fill="#F09E78"/>
<path d="M24 19.07C30.13 20.37 37.02 25.31 40.55 31.22C38.06 35.45 32.14 39.74 21.18 38.98C10.22 38.22 5.02 24.9 4.69 22C7.46 20.37 15.18 18.47 24 19.07Z" fill="white"/>
<path d="M24 19.07C27.12 19.73 30.44 21.35 33.42 23.55C33.77 25.04 33.84 26.62 33.5 28.21C32.27 33.88 26.71 37.48 21.08 36.26C15.45 35.04 11.89 29.46 13.11 23.79C13.49 22.04 14.32 20.52 15.4 19.24C18.03 18.96 20.94 18.86 23.99 19.07H24Z" fill="url(#paint1_linear_5_1516)"/>
<path d="M18.89 25.05C18.36 27.51 19.9 29.94 22.35 30.47C24.8 31 27.21 29.44 27.74 26.97C28.28 24.51 26.73 22.08 24.28 21.55C21.84 21.02 19.42 22.59 18.89 25.05Z" fill="#3B1510"/>
<g style="mix-blend-mode:multiply">
<path d="M24 19.07C27.12 19.73 30.44 21.35 33.42 23.55C33.77 25.04 33.84 26.62 33.5 28.21C33.47 28.34 33.41 28.45 33.38 28.59C29.97 26.64 22.43 23.08 13.29 23.22C13.72 21.71 14.46 20.38 15.41 19.25C18.04 18.97 20.95 18.87 24 19.08V19.07Z" fill="#C4B2A0"/>
</g>
<path d="M42.46 32.34C42.46 32.34 33.34 21.68 22.98 20.27C9.47001 19.94 5.46001 22.98 5.46001 22.98C5.46001 23.63 5.79001 25.47 5.79001 25.47C5.79001 25.47 2.37001 22.11 1.01001 19.91C8.50001 17.93 15.5 17.11 24.67 17.98C33.84 18.85 42.19 23.52 42.19 23.52C42.19 23.52 36.53 21.43 31.69 20.7C34.82 22.57 40.79 27.46 42.46 32.34Z" fill="#17222B"/>
<path d="M34.27 36.87C32.11 37.77 17.87 41.74 9.48999 32.03C11.45 36 20.54 43.79 34.27 36.87Z" fill="#F09E78"/>
<path d="M26.07 27.24C26.07 28.48 27.3 29.49 28.81 29.49C30.32 29.49 31.55 28.48 31.55 27.24C31.55 26 30.32 24.99 28.81 24.99C27.3 24.99 26.07 25.99 26.07 27.24Z" fill="white"/>
<path d="M35.43 17.28C35.43 17.28 26.89 14.35 14.68 15.17C21.03 13.38 29.66 14.41 30.42 14.47C31.18 14.52 33.94 15.82 35.44 17.29L35.43 17.28Z" fill="#F09E78"/>
<path d="M74.03 1C74.88 6.95 78.77 9.2 81.15 10.33C85.56 12.42 104.89 12.42 119.11 8.22C103.31 7.16 85.55 6.25 74.03 1Z" fill="#17222B"/>
<path d="M46.08 1C45.23 6.95 41.34 9.2 38.96 10.33C34.55 12.42 15.22 12.42 1 8.22C16.8 7.16 34.56 6.25 46.08 1Z" fill="#17222B"/>
<defs>
<linearGradient id="paint0_linear_5_1516" x1="96.82" y1="33.35" x2="96.82" y2="18.17" gradientUnits="userSpaceOnUse">
<stop stop-color="#7D4C36"/>
<stop offset="1" stop-color="#542624"/>
</linearGradient>
<linearGradient id="paint1_linear_5_1516" x1="23.3" y1="1" x2="23.3" y2="1" gradientUnits="userSpaceOnUse">
<stop stop-color="#7D4C36"/>
<stop offset="1" stop-color="#542624"/>
</linearGradient>
</defs>
</svg>
