<svg width="120" height="40" viewBox="0 0 120 40" fill="none" xmlns="http://www.w3.org/2000/svg">
<path d="M96.11 19.0763C89.98 20.3763 83.09 25.3163 79.56 31.2263C82.06 35.4563 87.97 39.7463 98.93 38.9863C109.89 38.2263 115.09 24.9063 115.43 22.0063C112.66 20.3763 104.94 18.4763 96.11 19.0763Z" fill="white"/>
<path d="M96.11 19.0763C92.98 19.7363 89.67 21.3563 86.69 23.5563C86.34 25.0463 86.27 26.6263 86.61 28.2163C87.84 33.8863 93.4 37.4863 99.02 36.2663C104.65 35.0463 108.21 29.4663 106.99 23.7963C106.61 22.0463 105.78 20.5263 104.7 19.2463C102.07 18.9663 99.16 18.8663 96.11 19.0763Z" fill="url(#paint0_linear_5_1515)"/>
<path d="M101.23 25.0563C101.77 27.5163 100.22 29.9463 97.77 30.4763C95.32 31.0063 92.91 29.4463 92.38 26.9763C91.85 24.5163 93.39 22.0863 95.84 21.5563C98.28 21.0263 100.7 22.5963 101.23 25.0563Z" fill="#3B1510"/>
<g style="mix-blend-mode:multiply">
<path d="M96.11 19.0763C92.98 19.7363 89.67 21.3563 86.69 23.5563C86.34 25.0463 86.27 26.6263 86.61 28.2163C86.64 28.3463 86.7 28.4563 86.73 28.5963C90.14 26.6463 97.68 23.0863 106.82 23.2263C106.4 21.7163 105.65 20.3863 104.7 19.2563C102.07 18.9763 99.16 18.8763 96.11 19.0863V19.0763Z" fill="#C4B2A0"/>
</g>
<path d="M77.67 32.3463C77.67 32.3463 86.78 21.6863 97.15 20.2763C110.66 19.9463 114.68 22.9863 114.68 22.9863C114.68 23.6363 114.35 25.4763 114.35 25.4763C114.35 25.4763 117.77 22.1163 119.13 19.9163C111.64 17.9363 104.64 17.1163 95.47 17.9863C86.3 18.8563 77.94 23.5263 77.94 23.5263C77.94 23.5263 83.6 21.4363 88.44 20.7063C85.31 22.5763 79.34 27.4663 77.67 32.3463Z" fill="#17222B"/>
<path d="M85.85 36.8763C88.01 37.7763 102.25 41.7463 110.62 32.0363C108.66 36.0063 99.57 43.7963 85.85 36.8763Z" fill="#F09E78"/>
<path d="M105.04 24.6463C105.04 25.8863 103.82 26.8963 102.3 26.8963C100.78 26.8963 99.56 25.8863 99.56 24.6463C99.56 23.4063 100.79 22.3963 102.3 22.3963C103.81 22.3963 105.04 23.3963 105.04 24.6463Z" fill="white"/>
<path d="M84.69 17.2863C84.69 17.2863 93.23 14.3563 105.44 15.1763C99.09 13.3863 90.46 14.4163 89.71 14.4763C88.95 14.5263 86.18 15.8263 84.69 17.2963V17.2863Z" fill="#F09E78"/>
<path d="M24 19.0763C30.13 20.3763 37.02 25.3163 40.55 31.2263C38.06 35.4563 32.14 39.7463 21.18 38.9863C10.22 38.2263 5.02 24.9063 4.69 22.0063C7.46 20.3763 15.18 18.4763 24 19.0763Z" fill="white"/>
<path d="M24 19.0763C27.12 19.7363 30.44 21.3563 33.42 23.5563C33.77 25.0463 33.84 26.6263 33.5 28.2163C32.27 33.8863 26.71 37.4863 21.08 36.2663C15.45 35.0463 11.89 29.4663 13.11 23.7963C13.49 22.0463 14.32 20.5263 15.4 19.2463C18.03 18.9663 20.94 18.8663 23.99 19.0763H24Z" fill="url(#paint1_linear_5_1515)"/>
<path d="M18.89 25.0563C18.36 27.5163 19.9 29.9463 22.35 30.4763C24.8 31.0063 27.21 29.4463 27.74 26.9763C28.28 24.5163 26.73 22.0863 24.28 21.5563C21.84 21.0263 19.42 22.5963 18.89 25.0563Z" fill="#3B1510"/>
<g style="mix-blend-mode:multiply">
<path d="M24 19.0763C27.12 19.7363 30.44 21.3563 33.42 23.5563C33.77 25.0463 33.84 26.6263 33.5 28.2163C33.47 28.3463 33.41 28.4563 33.38 28.5963C29.97 26.6463 22.43 23.0863 13.29 23.2263C13.72 21.7163 14.46 20.3863 15.41 19.2563C18.04 18.9763 20.95 18.8763 24 19.0863V19.0763Z" fill="#C4B2A0"/>
</g>
<path d="M42.46 32.3463C42.46 32.3463 33.34 21.6863 22.98 20.2763C9.47001 19.9463 5.46001 22.9863 5.46001 22.9863C5.46001 23.6363 5.79001 25.4763 5.79001 25.4763C5.79001 25.4763 2.37001 22.1163 1.01001 19.9163C8.50001 17.9363 15.5 17.1163 24.67 17.9863C33.84 18.8563 42.19 23.5263 42.19 23.5263C42.19 23.5263 36.53 21.4363 31.69 20.7063C34.82 22.5763 40.79 27.4663 42.46 32.3463Z" fill="#17222B"/>
<path d="M34.27 36.8763C32.11 37.7763 17.87 41.7463 9.48999 32.0363C11.45 36.0063 20.54 43.7963 34.27 36.8763Z" fill="#F09E78"/>
<path d="M26.07 27.2463C26.07 28.4863 27.3 29.4963 28.81 29.4963C30.32 29.4963 31.55 28.4863 31.55 27.2463C31.55 26.0063 30.32 24.9963 28.81 24.9963C27.3 24.9963 26.07 25.9963 26.07 27.2463Z" fill="white"/>
<path d="M35.43 17.2863C35.43 17.2863 26.89 14.3563 14.68 15.1763C21.03 13.3863 29.66 14.4163 30.42 14.4763C31.18 14.5263 33.94 15.8263 35.44 17.2963L35.43 17.2863Z" fill="#F09E78"/>
<path d="M74.41 11.5963C74.41 11.5963 97.8 4.21634 104.63 3.67634C111.47 3.13634 119.12 3.67634 119.12 3.67634C119.12 3.67634 111.63 1.17634 103.87 1.01634C96.11 0.856338 78.64 3.77634 77.28 4.16634C75.93 4.54634 74.19 7.90634 74.4 11.5963H74.41Z" fill="#17222B"/>
<path d="M45.71 11.5963C45.71 11.5963 22.32 4.20634 15.49 3.66634C8.65 3.12634 1 3.66634 1 3.66634C1 3.66634 8.49 1.17634 16.25 1.00634C24.01 0.846336 41.48 3.76634 42.84 4.15634C44.2 4.53634 45.94 7.89634 45.72 11.5863L45.71 11.5963Z" fill="#17222B"/>
<defs>
<linearGradient id="paint0_linear_5_1515" x1="96.82" y1="33.3563" x2="96.82" y2="18.1763" gradientUnits="userSpaceOnUse">
<stop stop-color="#7D4C36"/>
<stop offset="1" stop-color="#542624"/>
</linearGradient>
<linearGradient id="paint1_linear_5_1515" x1="23.3" y1="1.00634" x2="23.3" y2="1.00634" gradientUnits="userSpaceOnUse">
<stop stop-color="#7D4C36"/>
<stop offset="1" stop-color="#542624"/>
</linearGradient>
</defs>
</svg>
