<svg width="45" height="34" viewBox="0 0 45 34" fill="none" xmlns="http://www.w3.org/2000/svg">
<g style="mix-blend-mode:multiply">
<path d="M22.3954 4.41177C7.99226 4.41177 5.77521 14.187 5.77521 19.7916C5.77521 23.7451 6.02327 27.5591 6.87598 32.1327L8.48063 27.125L10.6899 25.6831C10.2326 26.0242 9.5504 26.6831 9.29459 27.6753C11.1008 27.0939 17.0078 24.6908 18.4651 20.8459C18.4651 20.8459 18.8217 26.0552 18.5116 29.156C20.8295 27.8769 23.8217 25.9622 25.3411 22.5358C25.3411 22.5358 25.6744 25.9389 25.8217 27.8769C28.2248 25.9699 29.938 21.6443 29.4496 16.7761C30.7132 18.6056 32.5892 24.187 32.8915 27.6521C34.5426 25.8381 34.4496 23.1715 34.4496 23.1715L35.3101 26.2877L36.1706 27.3032L37.093 32.5591C37.093 32.5591 37.4961 32.1482 38.0698 31.373C38.8062 27.1327 39.031 23.5203 39.031 19.7916C39.031 14.1947 36.8062 4.41177 22.4109 4.41177H22.3954Z" fill="#E6C8BA"/>
</g>
<path d="M43.0233 18.0862C42.7132 17.2335 41.1008 11.9389 40.2248 10.6366C39.3488 9.33424 35.814 6.7451 33.6744 5.55905C33.6744 5.55905 37.6357 3.9699 39.0155 3.52029C35.1008 2.00091 33.0465 3.5668 32.124 4.63657C32.124 4.63657 29.031 1.68308 27.7829 1.25672C26.5349 0.830367 20.9535 0.543546 11.6589 3.7451C7.67442 5.73734 4.65891 11.3497 3.71318 12.5823C2.76744 13.8149 1.00775 14.6676 1.00775 14.6676C1.00775 14.6676 2.52713 15.7606 3.8062 15.7606C3.8062 15.7606 3.13953 17.5668 3.33333 23.5435C4.37984 29.187 6.87597 32.1404 6.87597 32.1404L8.07752 26.9389L10.4264 23.7141C10.4264 23.7141 9.68992 26.1327 9.28682 27.6831C11.093 27.1017 16.3333 23.5435 18.1318 19.8459C18.1318 19.8459 18.0155 25.0629 17.4264 28.1249C19.8527 27.0629 23 25.4195 24.8295 22.1482C24.8295 22.1482 24.8527 25.5668 24.8295 27.5125C27.3953 25.8304 29.9302 21.6521 29.4419 16.7839C30.7054 18.6133 32.969 24.0242 33.4496 27.4583C35 25.5591 34.7674 22.9001 34.7674 22.9001L35.7907 25.9699L36.7054 26.9389L37.907 32.1404C37.907 32.1404 40.4031 29.1947 41.4496 23.5435C41.5426 20.6133 41.4264 18.6908 41.2946 17.4893C41.7907 17.7761 42.4419 18.0629 43.031 18.0862H43.0233Z" fill="url(#paint0_linear_1_846)"/>
<g opacity="0.1">
<path d="M4.89147 10.7994C4.36434 11.5978 3.96124 12.2412 3.70543 12.5746C2.75969 13.8071 1 14.6598 1 14.6598C1 14.6598 2.51938 15.7529 3.79845 15.7529C3.79845 15.7529 3.79845 15.7684 3.78295 15.7916C11.0388 16.8536 16.4264 15.3963 16.4264 15.3963C11.2093 13.8691 7.44961 12.187 4.88372 10.7994H4.89147Z" fill="white"/>
<path d="M40.2248 10.6288C40.1628 10.5436 40.093 10.4505 40.0155 10.3498C37.4651 11.8226 33.6201 13.6598 28.1473 15.3575C28.1473 15.3575 34.2248 16.9001 42.1085 15.311C41.5039 13.5048 40.7364 11.3885 40.2248 10.6288Z" fill="white"/>
</g>
<defs>
<linearGradient id="paint0_linear_1_846" x1="22.0155" y1="2.36525" x2="22.0155" y2="28.0087" gradientUnits="userSpaceOnUse">
<stop stop-color="#1C242B"/>
<stop offset="1" stop-color="#343D45"/>
</linearGradient>
</defs>
</svg>
