<svg width="45" height="34" viewBox="0 0 45 34" fill="none" xmlns="http://www.w3.org/2000/svg">
<g style="mix-blend-mode:multiply">
<path d="M24.062 6.94574C9.65895 6.94574 7.44189 16.7209 7.44189 22.3256C7.44189 22.8217 7.44189 23.3178 7.4574 23.814L10.8527 20.7597L14.5969 18.7674C16.0078 16.5581 19.4884 12.8915 20.2714 13.1085C21.0543 13.3256 25.752 20.2636 29.1008 23.0155C32.4496 25.7674 38.0931 26.7752 38.0931 26.7752L40.6667 24.4496C40.6822 23.7442 40.69 23.0388 40.69 22.3256C40.69 16.7287 38.4651 6.94574 24.0698 6.94574H24.062Z" fill="#E6C8BA"/>
</g>
<path d="M40.6352 12H4.35704L4 21.904L5.07111 30.4875L6.71659 32C6.71659 32 9.7747 24.7217 9.7747 23.8081C9.7747 22.8944 9.38662 18.4108 9.38662 18.4108L13.0191 17.9501L13.64 16.714C13.64 16.714 22.4884 14.9482 31.9809 17.9501L35.6134 18.4108C35.6134 18.4108 35.2253 22.8868 35.2253 23.8081C35.2253 24.7294 38.2834 32 38.2834 32L39.9289 30.4875L41 21.904L40.643 12H40.6352Z" fill="url(#paint0_linear_1_850)"/>
<path d="M28 12H13V16.805C13 16.805 19.7877 15.5023 28 17V12Z" fill="#171B1F"/>
<path d="M35 23.6561C35 23.7285 35.0161 23.8462 35.0483 24C35.7721 23.9548 37.3244 23.81 38 23.3665L35.0724 22C35.0241 22.7421 35 23.3575 35 23.6561Z" fill="#171B1F"/>
<path d="M3.91059 24C3.29414 21.3122 1 13.3793 1 13.3793C3.25512 10.5225 5.76775 8.94056 9.3104 8.19566C10.7462 5.65375 13.4695 2.69716 18.4089 1C24.2847 1.49149 40.3125 9.35526 40.7884 10.0234C41.2644 10.6915 40.7884 21.5502 40.7884 21.5502L37.9013 23.209C37.9013 23.209 32.1347 22.9249 28.4438 20.6364C24.7529 18.3479 19.1658 12.212 18.3777 11.997C17.5896 11.782 14.0859 15.4144 12.6658 17.603L8.92024 18.0254L3.91059 23.9923V24Z" fill="url(#paint1_linear_1_850)"/>
<path opacity="0.1" d="M28 15.4614C28 15.4614 33.542 17.8372 40.9653 16.6843C40.9943 15.3991 41.0088 14.0905 40.9943 13C38.2124 13.9659 32.8157 15.5627 28 15.4614Z" fill="white"/>
<path d="M11 16C11 16 12.1786 12.2795 14 11C14 11 12.3316 14.0709 11 16Z" fill="#171B1F"/>
<path d="M11 14C11 14 11.3229 11.0393 12 9C12 9 11.5781 12.3384 11 14Z" fill="#171B1F"/>
<defs>
<linearGradient id="paint0_linear_1_850" x1="22.4961" y1="6.58733" x2="22.4961" y2="28.8522" gradientUnits="userSpaceOnUse">
<stop stop-color="#1C242B"/>
<stop offset="1" stop-color="#343D45"/>
</linearGradient>
<linearGradient id="paint1_linear_1_850" x1="20.9996" y1="6.2374" x2="20.9996" y2="28.5078" gradientUnits="userSpaceOnUse">
<stop stop-color="#1C242B"/>
<stop offset="1" stop-color="#343D45"/>
</linearGradient>
</defs>
</svg>
