<svg width="45" height="34" viewBox="0 0 45 34" fill="none" xmlns="http://www.w3.org/2000/svg">
<path d="M38.7004 14.6856C38.7004 14.6856 40 17.8399 40 19.2833C40 20.7268 39.4174 28.7536 39.1635 29.7618C38.9095 30.7699 37.4306 33 37.4306 33L36.9526 27.6615C36.9526 27.6615 35.1003 25.3856 35.0331 24.8586C34.9658 24.3316 35.0704 18.2981 35.0331 17.8475C34.9957 17.3893 34.4878 17.29 34.4878 17.29C32.2621 17.817 22.5 18.4127 22.5 18.4127C22.5 18.4127 12.7379 17.817 10.5122 17.29C10.5122 17.29 9.99679 17.3969 9.96692 17.8475C9.92957 18.3057 10.0341 24.3392 9.96692 24.8586C9.8997 25.3779 8.04738 27.6615 8.04738 27.6615L7.56936 33C7.56936 33 6.08301 30.7699 5.83653 29.7618C5.58258 28.7536 5 20.7191 5 19.2833C5 17.8475 6.30708 14.6856 6.30708 14.6856C5.74691 14.3038 5.42573 12.9901 5.42573 12.9901L7.16602 13.6928C7.07639 12.1042 7.48719 10.7448 7.78595 9.59916C8.08472 8.45356 9.2499 6.27692 9.2499 6.27692C9.2499 6.27692 9.98186 7.75092 10.0491 8.47647C10.6914 7.42252 12.4242 5.7423 13.8882 4.87928C15.3521 4.01626 19.1912 2.42769 19.1912 2.42769C19.1912 2.42769 19.3779 3.64203 19.3032 4.43631C20.6253 3.87115 23.1423 3.19906 24.8602 2.98522C26.5781 2.77137 29.4537 2.30549 29.8645 2C29.9317 3.71077 29.7525 4.45159 29.7525 4.45159C29.7525 4.45159 32.5384 3.98571 33.5243 3.58857C34.5102 3.19143 34.7343 3.00049 34.7343 3.00049C34.7343 3.00049 35.4887 5.55137 34.9883 8.11752C35.8099 7.36906 36.385 6.59768 36.385 6.59768C36.385 6.59768 38.0506 9.70609 38.2149 11.3863C38.3717 13.0742 38.3493 13.7462 38.3493 13.7462L39.2904 13.6088C39.2904 13.6088 39.1037 14.2885 38.7303 14.6704L38.7004 14.6856Z" fill="url(#paint0_linear_1_848)"/>
<path d="M23 18C23 18 23.2708 17.4397 23.7884 16.6645C24.306 15.8816 25.0865 14.9068 25.9625 14.0011C26.4243 13.5713 26.8544 13.1107 27.3242 12.75C27.7941 12.3893 28.2162 12.0285 28.6223 11.7829C29.4426 11.2917 30 11 30 11C30 11 29.5381 11.4375 28.8373 12.0439C28.6541 12.182 28.4869 12.3739 28.2878 12.5581C28.0967 12.7423 27.8896 12.9342 27.6826 13.1261C27.4596 13.318 27.2605 13.5329 27.0455 13.7478C26.8305 13.9627 26.6155 14.1776 26.3925 14.4002C26.1616 14.6075 25.9625 14.8454 25.7554 15.0603C25.5484 15.2752 25.3333 15.4901 25.1342 15.705C24.7361 16.1272 24.3697 16.5263 24.0592 16.864C23.4221 17.5471 23 18 23 18Z" fill="#171B1F"/>
<path d="M22.067 18C22.067 18 22.0146 17.6103 22.0041 17.0221C21.9936 16.7279 22.0041 16.3824 22.0251 16.0221C22.0356 15.6544 22.088 15.2647 22.1299 14.8824C22.1823 14.5 22.2609 14.1176 22.3291 13.7574C22.3658 13.5809 22.4234 13.4118 22.4654 13.2574C22.5125 13.1029 22.5597 12.9559 22.6016 12.8162C22.6436 12.6838 22.7117 12.5735 22.7589 12.4706C22.8061 12.375 22.8532 12.2868 22.8847 12.2132C22.9581 12.0735 23 12 23 12C23 12 22.9843 12.1029 22.9528 12.2647C22.9371 12.3456 22.9161 12.4412 22.8899 12.5588C22.869 12.6765 22.8323 12.7941 22.8113 12.9338C22.7746 13.2206 22.7117 13.5368 22.6593 13.8824C22.6226 14.2353 22.5492 14.6029 22.5073 14.9779C22.4549 15.3529 22.4077 15.7279 22.3605 16.0809C22.3081 16.4338 22.2609 16.7647 22.2243 17.0515C22.1352 17.6176 22.0618 18 22.0618 18H22.067Z" fill="#171B1F"/>
<path d="M20.9896 17.983C20.9896 17.983 20.7098 17.8047 20.3886 17.482C20.057 17.1592 19.715 16.6837 19.4456 16.1826C19.3316 15.9193 19.2073 15.6645 19.1347 15.4098C19.0725 15.155 19.0207 14.9087 19 14.7049C19 14.2718 19.0518 14 19.0518 14C19.0518 14 19.2383 14.2548 19.4352 14.62C19.6632 14.9851 19.9223 15.4607 20.171 15.9448C20.4301 16.4289 20.6477 16.9299 20.7927 17.3206C20.9274 17.7113 21 18 21 18L20.9896 17.983Z" fill="#171B1F"/>
<path d="M25 18C25 18 25.414 17.7264 26.0504 17.3708C26.6868 17.0243 27.5531 16.614 28.4195 16.2219C29.2859 15.8389 30.1752 15.5106 30.8499 15.3009C31.5323 15.1003 32 15 32 15C32 15 31.6013 15.2918 30.9726 15.6657C30.3439 16.0395 29.4852 16.4772 28.6112 16.8602C28.1742 17.0426 27.7371 17.2432 27.3154 17.3799C26.8938 17.5258 26.5027 17.6444 26.1577 17.7356C25.4754 17.9179 25.0077 18 25.0077 18H25Z" fill="#171B1F"/>
<path d="M37.2799 16.155C36.0888 16.9923 34.7545 17.5039 34.7545 17.5039C34.7545 17.5039 35.2747 17.6124 35.3048 18.0698C35.3048 18.1318 35.3048 18.2791 35.3048 18.4884C36.4356 17.6589 37.2649 16.1473 37.2649 16.1473L37.2799 16.155Z" fill="#171B1F"/>
<path d="M9.99039 18.4031C9.99039 18.2481 9.99039 18.124 9.99039 18.0775C10.0281 17.6124 10.5407 17.5116 10.5407 17.5116C10.5407 17.5116 8.41484 16.3178 7.59314 15.6434C7.59314 15.6434 8.7013 17.4186 9.98285 18.4031H9.99039Z" fill="#171B1F"/>
<defs>
<linearGradient id="paint0_linear_1_848" x1="22.4925" y1="4.07736" x2="22.4925" y2="29.0744" gradientUnits="userSpaceOnUse">
<stop stop-color="#1C242B"/>
<stop offset="1" stop-color="#343D45"/>
</linearGradient>
</defs>
</svg>
