<svg width="45" height="34" viewBox="0 0 45 34" fill="none" xmlns="http://www.w3.org/2000/svg">
<path d="M22.5037 4.22715C24.1556 3.154 26.1577 2.86627 27.7716 3.05291C29.3778 3.23177 35.4983 6.05461 37.8049 8.15425C40.1115 10.2617 41.9614 14.6865 41.9994 19.4768C42.0375 24.2593 40.1496 30.7915 39.9745 31.0403C39.7994 31.2814 37.9876 33 37.9876 33C37.9876 33 37.8963 30.496 37.8278 30.3016C37.7593 30.1072 36.899 28.4119 36.6554 28.1942C36.4118 27.9764 36.6935 26.8333 36.6554 26.5144C36.625 26.1956 36.4271 24.9436 35.8333 24.0493C35.171 25.8846 34.2042 27.4943 33.854 27.4398C33.6409 27.4087 33.0319 26.4211 32.3772 25.2469C31.1287 22.9762 30.809 22.1752 30.2533 21.3198C30.2685 21.7475 29.119 25.3558 28.6775 25.3713C28.236 25.3869 27.665 22.7662 27.1017 20.9465C26.5384 19.1268 25.1453 16.2729 24.9093 16.3195C24.6809 16.3662 22.4961 17.8437 22.4961 17.8437C22.4961 17.8437 20.3189 16.3662 20.0829 16.3195C19.8469 16.2729 18.4538 19.1268 17.8905 20.9465C17.3348 22.7662 16.7562 25.3946 16.3147 25.3713C15.8808 25.3558 14.7237 21.7475 14.7389 21.3198C14.1756 22.1752 13.8635 22.9839 12.615 25.2469C11.9679 26.4211 11.3513 27.4087 11.1382 27.4398C10.788 27.4943 9.82881 25.8846 9.16652 24.0493C8.57274 24.9436 8.38243 26.1878 8.34436 26.5144C8.3063 26.8333 8.58797 27.9764 8.34436 28.1942C8.10076 28.4041 7.24055 30.1072 7.17204 30.3016C7.10352 30.496 7.01217 33 7.01217 33C7.01217 33 5.208 31.2892 5.03291 31.0403C4.85782 30.7993 2.96991 24.2593 3.00036 19.4768C3.03843 14.6942 4.88827 10.2617 7.19487 8.15425C9.50148 6.04684 15.6144 3.22399 17.2282 3.05291C18.8345 2.87405 20.8366 3.16178 22.4961 4.22715H22.5037Z" fill="url(#paint0_linear_1_849)"/>
<path opacity="0.1" d="M42 15.8391C34.3747 16.3168 27.8564 15.5785 27.8564 15.5785C30.5308 14.7013 35.9028 13.3376 40.8694 12C41.3451 13.1726 41.7271 14.4668 42 15.8391ZM4.13055 12C3.65494 13.1726 3.27289 14.4668 3 15.8391C10.6253 16.3168 17.1435 15.5785 17.1435 15.5785C14.4692 14.7013 9.09716 13.3376 4.13055 12Z" fill="white"/>
<defs>
<linearGradient id="paint0_linear_1_849" x1="22.5037" y1="4.23493" x2="22.5037" y2="31.4369" gradientUnits="userSpaceOnUse">
<stop stop-color="#1C242B"/>
<stop offset="1" stop-color="#343D45"/>
</linearGradient>
</defs>
</svg>
