<svg width="45" height="34" viewBox="0 0 45 34" fill="none" xmlns="http://www.w3.org/2000/svg">
<g style="mix-blend-mode:multiply">
<path d="M22.8813 5.22535C8.47822 5.22535 6.26117 15.0005 6.26117 20.6052C6.26117 24.6517 6.52474 28.5587 7.42396 33.2796C7.79605 33.5044 8.09063 30.1401 8.04411 27.3959C8.85807 25.6905 11.8581 20.5819 11.8581 20.5819C12.6875 23.2951 14.517 25.6207 14.7108 25.8145C14.9046 26.0083 15.7728 26.0626 15.8116 26.0083C15.8503 25.954 15.5557 18.861 16.1294 15.2719C18.2922 21.2021 20.455 26.2951 21.2999 27.0936C22.1371 27.892 23.4162 28.3261 23.5015 28.1478C23.5868 27.9618 23.5015 23.5044 23.5015 23.5044C25.2844 25.8843 27.2147 27.3261 27.8271 27.7292C28.4395 28.1323 29.1449 27.954 29.1449 27.954L28.3154 18.985C30.9821 24.3184 35.2224 31.0393 35.5557 30.7757C35.7263 30.6362 37.1216 27.6905 37.2999 26.4579C37.4627 26.83 37.61 27.1478 37.7263 27.3881C37.6875 30.1323 37.9743 33.4967 38.3464 33.2719C39.2457 28.5509 39.5092 24.6517 39.5092 20.5974C39.5092 15.0005 37.2844 5.21759 22.8891 5.21759L22.8813 5.22535Z" fill="#E6C8BA"/>
</g>
<path d="M44.7418 21.1323C44.7418 21.1323 43.4627 13.4579 41.7495 10.8222C40.0364 8.18658 36.0208 5.45014 36.0208 5.45014C37.0208 4.91525 38.0208 3.59743 37.5712 3.45789C37.1216 3.31836 28.8658 1.39588 24.3077 1.07029C19.7495 0.752465 17.3309 1.60518 16.6177 1.78347C15.9046 1.96177 13.703 4.27184 13.703 4.27184C12.3464 2.99277 9.67976 1.70595 8.78829 1.60517C9.46271 3.41913 11.0674 4.55866 12.1681 4.73696C9.85806 5.45014 8.641 6.31835 7.75728 6.85323C6.86581 7.38812 4.23015 9.20208 3.57123 9.36487C2.91232 9.52766 3.48596 10.0238 3.78829 10.1866C4.09062 10.3494 4.94333 10.7757 5.79604 10.8067C3.85806 12.2641 2.50147 16.1401 2.36193 17.1478C2.2224 18.1556 1.27666 24.7059 1.08286 25.5432C0.889064 26.3804 1.0441 26.5432 1.45496 26.4114C1.86581 26.2874 3.12162 25.4967 3.4162 25.1168C4.12162 28.768 7.0286 33.0393 7.40844 33.2796C7.78829 33.5199 8.07511 30.1478 8.0286 27.3959C8.84255 25.6904 11.2069 19.9928 11.2069 19.9928C11.6798 22.7912 13.1991 25.3339 13.3697 25.5432C13.5325 25.7602 14.3929 25.923 14.4395 25.8765C14.486 25.83 15.5557 18.8532 16.1216 15.2718C18.2844 21.2021 21.3154 25.9153 22.2224 26.6439C23.1294 27.3726 24.4317 27.706 24.5015 27.5122C24.5712 27.3261 24.1216 22.8843 24.1216 22.8843C26.0906 25.1168 28.1294 26.3959 28.7728 26.7525C29.4162 27.109 30.0984 26.8687 30.0984 26.8687L28.5557 17.9928C31.641 23.0936 36.4084 29.4501 36.7185 29.1711C36.8813 29.0238 37.1061 27.6905 37.2844 26.4579C37.4472 26.83 37.5945 27.1478 37.7108 27.3881C37.672 30.1401 37.9588 33.5122 38.3387 33.2718C38.7185 33.0315 41.6255 28.7602 42.3309 25.1091C42.3309 25.1091 42.548 23.0935 42.3309 20.4579C44.1061 21.5974 44.7418 21.1246 44.7418 21.1246V21.1323Z" fill="url(#paint0_linear_1_851)"/>
<path d="M37.7108 27.3881C37.7108 27.8687 37.7108 28.3649 37.7185 28.8532C38.517 29.1556 39.4937 29.1633 39.4937 29.1633C38.6255 28.6517 37.7108 27.3881 37.7108 27.3881Z" fill="#171B1F"/>
<path d="M6.12164 29.6362C6.12164 29.6362 7.13715 29.3881 8.03637 28.7137C8.04413 28.2718 8.04413 27.8222 8.03637 27.3881C8.03637 27.3881 7.13715 28.8532 6.11389 29.6284L6.12164 29.6362Z" fill="#171B1F"/>
<path opacity="0.1" d="M43.0983 14.016C32.641 16.0005 20.5945 14.768 20.5945 14.768C24.7417 13.5509 35.4084 11.2564 40.889 9.67496C41.2146 10.0471 41.5092 10.4346 41.7572 10.8145C42.2456 11.5664 42.703 12.737 43.0983 14.016ZM2.98981 15.1323C7.10609 15.0626 9.94329 14.768 9.94329 14.768C8.52469 14.3494 6.35415 13.8145 3.88903 13.2176C3.53244 13.861 3.23012 14.5199 2.99756 15.1246L2.98981 15.1323Z" fill="white"/>
<defs>
<linearGradient id="paint0_linear_1_851" x1="22.8736" y1="3.62843" x2="22.8736" y2="29.6982" gradientUnits="userSpaceOnUse">
<stop stop-color="#1C242B"/>
<stop offset="1" stop-color="#343D45"/>
</linearGradient>
</defs>
</svg>
