<svg width="45" height="34" viewBox="0 0 45 34" fill="none" xmlns="http://www.w3.org/2000/svg">
<g style="mix-blend-mode:multiply">
<path d="M22.4923 5C8.2 5 6 14.9966 6 20.7282C6 24.6682 6.23846 28.4813 7.03077 33L7.77692 25.9128C7.77692 25.9128 9.38462 28.0929 9.52308 27.7123C9.53077 27.6569 9.95385 25.8652 10.3385 24.2322C10.8385 25.0883 11.4 25.8018 11.9231 26.4519C12.3154 24.8901 15.1769 20.9977 16.3846 19.2378C16.3846 19.2378 16.4154 21.9332 16.6539 23.3284C16.6539 23.3284 21.1692 19.0793 23.2923 17.2797C22.4385 19.0396 22.1308 21.521 22.1308 21.521C22.1308 21.521 27.4 18.2865 30.0308 17.0102L35.1615 19.4202C35.1615 19.4202 37.2 25.564 37.2231 25.667C37.3846 26.0317 37.8 26.761 37.8 26.761L37.9769 32.9524C38.7615 28.4496 39 24.6602 39 20.7361C39 15.0125 36.7923 5.00793 22.5077 5.00793L22.4923 5Z" fill="#E6C8BA"/>
</g>
<path d="M42.9924 18.7735C42.9924 18.7735 40.0444 13.4259 39.3244 12.479C39.1653 12.2695 35.9368 9.14941 35.9368 9.14941C35.9368 9.14941 36.0733 8.5285 35.8459 6.37085C35.4973 5.22993 31.9733 1 31.9733 1C31.9733 1 32.0415 3.66214 32.231 5.43949C30.3742 3.80184 28.0325 2.08659 23.6218 1.42687C21.4392 1.80718 14.3912 2.63764 12.1859 3.06452C12.6709 3.91826 13.459 5.12903 13.459 5.12903C13.459 5.12903 11.7615 5.64904 9.98051 6.69682C8.19199 7.7446 2.53085 11.6408 2.53085 11.6408C2.53085 11.6408 3.40996 12.2384 5.13028 13.0922C4.71346 13.5889 1 18.2457 1 18.2457C1 18.2457 3.13713 19.1227 3.97077 19.2314C3.97077 19.2314 3.27354 22.2894 3.2887 22.592C3.30386 22.9025 4.56947 28.2501 5.22122 29.9343C5.28943 30.1516 7.05521 33 7.05521 33L8.10105 27.2954C8.10105 27.2954 8.73006 26.6279 8.88921 26.2709C8.90436 26.2166 9.42728 24.4936 9.91231 22.9258C10.3443 23.7951 10.852 24.5324 11.3295 25.1999C11.8145 23.7019 14.8762 20.0929 16.1797 18.4553C16.1797 18.4553 16.0433 21.0941 16.1797 22.4679C16.1797 22.4679 20.886 18.6182 23.0913 17.0039C22.144 18.6648 21.6741 21.0631 21.6741 21.0631C21.6741 21.0631 27.0549 18.2612 29.7225 17.1902L33.921 20.349C33.921 20.349 35.7095 26.17 35.7322 26.2632C35.8914 26.6202 36.5204 27.2877 36.5204 27.2877L37.5662 32.9922C37.5662 32.9922 39.332 30.1438 39.4002 29.9265C40.052 28.2345 41.3176 22.8947 41.3327 22.5843C41.3479 22.2738 40.4006 18.0672 40.4006 18.0672C40.4006 18.0672 41.0751 18.3078 43 18.7579L42.9924 18.7735Z" fill="url(#paint0_linear_1_847)"/>
<path opacity="0.1" d="M41 14.9895C35.3729 15.0783 31.0902 14.5723 31.0902 14.5723C32.903 13.9419 36.0074 13.0719 39.3534 12.1308C39.5196 12.3261 39.6404 12.4681 39.6631 12.5037C39.9124 12.8765 40.426 13.8709 40.9925 14.9895H41ZM20.7122 14.5723C17.5399 13.4803 10.4625 11.6247 4.97893 10C3.84596 10.8878 3 11.5537 3 11.5537C3 11.5537 3.87617 12.2373 5.59074 13.2139C5.46989 13.3737 5.08468 13.933 4.59372 14.6255C12.9626 15.4956 20.7122 14.5634 20.7122 14.5634V14.5723Z" fill="white"/>
<path d="M30 17.3121C30 17.3121 32.2481 14.9342 33 14C33 14 31.9474 16.7941 30.8271 18L30 17.3121Z" fill="#171B1F"/>
<path d="M9.99131 22.6551C9.99131 22.6551 9.35652 21.2822 9 20C9 20 9.07826 22.8641 9.46956 24L10 22.6551H9.99131Z" fill="#171B1F"/>
<defs>
<linearGradient id="paint0_linear_1_847" x1="21.9924" y1="6.02935" x2="21.9924" y2="25.1455" gradientUnits="userSpaceOnUse">
<stop stop-color="#1C242B"/>
<stop offset="1" stop-color="#343D45"/>
</linearGradient>
</defs>
</svg>
