<svg width="60" height="25" viewBox="0 0 60 25" fill="none" xmlns="http://www.w3.org/2000/svg">
<path d="M13.7369 9.48609C13.7369 9.48609 13.8269 9.57609 13.9969 9.73609C14.1669 9.86609 14.3669 10.0661 14.6969 10.3161C15.0569 10.5561 15.4669 10.8761 15.9969 11.1961C16.5469 11.4861 17.1269 11.8961 17.8669 12.1961C18.6169 12.4861 19.3669 12.9061 20.2769 13.1561C21.1869 13.4061 22.0969 13.8061 23.1469 13.9461C24.1869 14.1061 25.2369 14.3861 26.3569 14.4561C27.4769 14.5261 28.6069 14.5861 29.7469 14.6561C30.8969 14.5861 32.0569 14.5161 33.1869 14.4561C33.7869 14.4561 34.2869 14.3161 34.8169 14.2261C35.3369 14.1361 35.8469 14.0361 36.3569 13.9461C37.3769 13.8061 38.3069 13.3961 39.2069 13.1561C40.1169 12.9061 40.8669 12.4861 41.6169 12.1961C42.3569 11.8961 42.9269 11.4861 43.4869 11.1961C44.0269 10.8761 44.4269 10.5561 44.7869 10.3161C45.1269 10.0661 45.3469 9.84609 45.5169 9.70609C45.6469 9.58609 45.7069 9.51609 45.7069 9.51609L45.7669 9.45609C46.2769 8.94609 47.2269 8.8461 47.8969 9.2461C48.5569 9.6361 48.6869 10.3761 48.1669 10.8861C48.1269 10.9261 48.0769 10.9761 48.0269 11.0161C48.0269 11.0161 47.8969 11.1161 47.6469 11.2961C47.4069 11.4461 47.0669 11.6661 46.6269 11.9461C46.1769 12.1961 45.6469 12.5261 44.9969 12.8361C44.3269 13.1161 43.6269 13.5061 42.7769 13.8161C41.9169 14.0961 41.0569 14.5161 40.0269 14.7461C39.5269 14.8761 39.0069 15.0061 38.4769 15.1361C37.9569 15.2761 37.4169 15.4161 36.8269 15.4861C35.6869 15.6361 34.4669 15.8961 33.3069 15.9661C32.1269 16.0261 30.9269 16.0861 29.7269 16.1461C28.5069 16.0861 27.2869 16.0261 26.0969 15.9661C24.8969 15.8961 23.7469 15.6361 22.6169 15.4861C22.0469 15.4161 21.5069 15.2761 20.9869 15.1361C20.4569 15.0061 19.9369 14.8661 19.4369 14.7461C18.4169 14.5161 17.5469 14.0961 16.6869 13.8161C15.8469 13.5061 15.1369 13.1261 14.4669 12.8361C13.8169 12.5261 13.2969 12.1961 12.8369 11.9461C12.3869 11.6561 12.0369 11.4261 11.7869 11.2661C11.5869 11.1161 11.4769 11.0361 11.4769 11.0361C10.8669 10.5961 10.8369 9.8561 11.4169 9.3861C11.9869 8.9161 12.9469 8.89609 13.5569 9.33609C13.6069 9.37609 13.6569 9.40609 13.6969 9.45609L13.7269 9.48609H13.7369Z" fill="#BD614F"/>
</svg>
