<svg width="60" height="25" viewBox="0 0 60 25" fill="none" xmlns="http://www.w3.org/2000/svg">
<path d="M29.7051 3C12.9251 3 10.8551 18.19 12.4351 20.18C14.0051 22.16 26.8251 22.49 29.7051 22.49C32.5851 22.49 45.3951 22.16 46.9751 20.18C48.5551 18.2 46.4951 3 29.7051 3Z" fill="#73102A"/>
<path d="M29.705 11.14C20.635 11.14 15.155 14.2 12.015 17.74C11.965 18.9 12.135 19.79 12.435 20.17C14.005 22.15 26.825 22.48 29.705 22.48C32.585 22.48 45.395 22.15 46.975 20.17C47.275 19.79 47.445 18.91 47.395 17.74C44.255 14.2 38.775 11.14 29.705 11.14Z" fill="#EB5050"/>
<path d="M40.055 5.64C37.475 4.06 34.105 3 29.705 3C25.305 3 22.175 3.97 19.635 5.45C24.575 6.71 31.795 7.6 40.055 5.64Z" fill="white"/>
</svg>
