<svg width="60" height="25" viewBox="0 0 60 25" fill="none" xmlns="http://www.w3.org/2000/svg">
<path d="M47.4607 12.087C44.0707 14.567 42.1807 19.977 30.1407 19.977C18.1007 19.977 16.2107 14.567 12.8207 12.087H47.4607Z" fill="#F5917D"/>
<path d="M12.4108 12.047C15.0608 12.107 20.6708 10.477 23.9308 9.23701C27.1908 7.99701 30.0008 6.857 34.9108 6.187C40.6108 5.397 47.1708 7.077 47.8708 11.857C41.3208 13.167 22.5208 14.407 12.4008 12.047H12.4108Z" fill="#F5917D"/>
<path d="M29.8807 13.867C36.6307 13.867 45.3207 12.717 47.0307 12.487C48.7407 12.267 51.1007 10.897 50.7207 10.617C50.3407 10.337 48.6307 9.78701 48.4607 9.84701C48.2907 9.89701 49.4507 11.117 47.6307 11.557C45.8107 11.997 40.7807 12.957 29.8807 12.957C18.9807 12.957 13.9407 11.997 12.1307 11.557C10.3107 11.117 11.4707 9.90701 11.3007 9.84701C11.1407 9.79701 9.43074 10.337 9.04074 10.617C8.66074 10.897 11.0207 12.267 12.7307 12.487C14.4407 12.707 23.1307 13.867 29.8807 13.867Z" fill="#BD614F"/>
</svg>
