<svg width="60" height="25" viewBox="0 0 60 25" fill="none" xmlns="http://www.w3.org/2000/svg">
<path d="M7.30453 14.7874C6.69453 14.9474 4.16453 16.6074 4.00453 16.9874C3.83453 17.3774 8.46453 18.7474 15.1245 18.5274C37.5845 17.8074 51.5645 11.6974 54.1545 10.3274C56.7445 8.94741 55.6445 7.63741 55.0945 7.40741C54.5445 7.18741 50.6845 6.79741 49.5345 7.12741C48.3745 7.45741 47.7745 10.4374 45.7345 11.1974C43.6945 11.9674 31.0945 16.4274 15.4045 17.5774C11.8345 17.8374 7.42453 16.6374 7.58453 16.1974C7.74453 15.7574 7.90453 14.6174 7.31453 14.7674L7.30453 14.7874Z" fill="#BD614F"/>
</svg>
