<svg width="60" height="25" viewBox="0 0 60 25" fill="none" xmlns="http://www.w3.org/2000/svg">
<path d="M30.3329 22.5C50.5629 22.5 53.0429 7.31002 51.1429 5.33002C49.2429 3.35002 33.8029 3.02002 30.3329 3.02002C26.8629 3.02002 11.4129 3.34002 9.5229 5.32002C7.6229 7.30002 10.1129 22.49 30.3329 22.49V22.5Z" fill="#73102A"/>
<path d="M30.3329 7.96C39.1629 7.96 45.9829 6.95 51.2129 5.42C51.1929 5.39 51.1729 5.34 51.1529 5.31C49.2529 3.33 33.8129 3 30.3429 3C26.8729 3 11.4129 3.34 9.52289 5.32C9.49289 5.35 9.48289 5.4 9.46289 5.43C14.6929 6.96 21.5129 7.97 30.3429 7.97L30.3329 7.96Z" fill="white"/>
<path d="M30.3329 9.62C21.4029 9.62 15.9429 12.58 12.7729 16.06C15.9329 19.54 21.4029 22.5 30.3329 22.5C39.2629 22.5 44.7229 19.54 47.8829 16.06C44.7229 12.58 39.2529 9.62 30.3329 9.62Z" fill="#EB5050"/>
</svg>
