<svg width="60" height="25" viewBox="0 0 60 25" fill="none" xmlns="http://www.w3.org/2000/svg">
<path d="M45.7332 15.66C45.7332 15.66 45.6432 15.57 45.4732 15.41C45.3032 15.28 45.1032 15.08 44.7732 14.83C44.4132 14.59 44.0032 14.27 43.4732 13.95C42.9132 13.66 42.3432 13.25 41.6032 12.95C40.8532 12.66 40.1032 12.24 39.1932 11.99C38.2832 11.74 37.3732 11.34 36.3232 11.19C35.2832 11.03 34.2332 10.75 33.1232 10.68C32.0032 10.61 30.8632 10.55 29.7332 10.48C28.5832 10.55 27.4232 10.62 26.2932 10.69C25.6932 10.69 25.1932 10.83 24.6732 10.92C24.1532 11.01 23.6332 11.11 23.1332 11.2C22.1132 11.34 21.1832 11.75 20.2832 11.99C19.3732 12.24 18.6232 12.66 17.8732 12.95C17.1332 13.25 16.5632 13.66 16.0032 13.95C15.4632 14.27 15.0632 14.59 14.7032 14.83C14.3632 15.08 14.1432 15.3 13.9732 15.44C13.8532 15.57 13.7832 15.63 13.7832 15.63L13.7232 15.69C13.2132 16.2 12.2632 16.3 11.5932 15.9C10.9232 15.51 10.8032 14.77 11.3232 14.26C11.3632 14.22 11.4132 14.17 11.4632 14.14C11.4632 14.14 11.5932 14.04 11.8432 13.85C12.0732 13.7 12.4232 13.48 12.8532 13.2C13.3032 12.95 13.8332 12.62 14.4832 12.31C15.1532 12.03 15.8532 11.64 16.7032 11.33C17.5532 11.05 18.4232 10.63 19.4532 10.4C19.9532 10.27 20.4732 10.14 21.0032 10.01C21.5332 9.87 22.0632 9.73 22.6532 9.66C23.7932 9.51 25.0132 9.25 26.1732 9.18C27.3532 9.12 28.5532 9.06 29.7532 9C30.9732 9.06 32.1932 9.12 33.3832 9.18C34.5832 9.25 35.7332 9.51 36.8632 9.66C37.4332 9.72 37.9732 9.87 38.4932 10.01C39.0232 10.14 39.5432 10.27 40.0432 10.4C41.0632 10.63 41.9332 11.04 42.7932 11.33C43.6332 11.64 44.3432 12.02 45.0132 12.31C45.6632 12.62 46.1832 12.95 46.6432 13.2C47.0932 13.49 47.4532 13.72 47.6932 13.88C47.9032 14.03 48.0032 14.11 48.0032 14.11C48.6132 14.55 48.6432 15.29 48.0632 15.76C47.4932 16.23 46.5332 16.25 45.9232 15.81C45.8732 15.77 45.8232 15.73 45.7832 15.69L45.7532 15.66H45.7332Z" fill="#BD614F"/>
</svg>
