<svg width="60" height="25" viewBox="0 0 60 25" fill="none" xmlns="http://www.w3.org/2000/svg">
<path d="M37.14 16.24C37.14 22.38 33.75 23.23 29.57 23.23C25.39 23.23 22 22.38 22 16.24C22 10.1 25.39 1 29.57 1C33.75 1 37.14 10.1 37.14 16.24Z" fill="#73102A"/>
<path d="M22.15 13.82C22.05 14.66 22 15.47 22 16.24C22 22.38 25.39 23.23 29.57 23.23C33.75 23.23 37.14 22.38 37.14 16.24C37.14 15.47 37.09 14.66 36.99 13.82C34.99 12.25 32.4 11.3 29.57 11.3C26.74 11.3 24.16 12.25 22.15 13.82Z" fill="#EB5050"/>
</svg>
