<svg width="60" height="25" viewBox="0 0 60 25" fill="none" xmlns="http://www.w3.org/2000/svg">
<path d="M30.3626 15.35C33.4626 15.35 42.5026 17.29 45.1626 17.58C47.8326 17.87 51.3326 16.81 48.9026 13.7C45.2126 8.99 34.8326 7 30.3626 7C25.8926 7 15.5126 8.99 11.8226 13.7C9.38261 16.81 12.8926 17.87 15.5626 17.58C18.2326 17.29 27.2626 15.35 30.3726 15.35H30.3626Z" fill="#73102A"/>
<path d="M45.1626 17.59C45.4726 17.62 45.8026 17.64 46.1226 17.63C42.6226 13.3 34.1026 11.45 30.3526 11.45C26.6026 11.45 18.0926 13.3 14.5826 17.63C14.9126 17.63 15.2326 17.63 15.5426 17.59C18.2126 17.3 27.2426 15.36 30.3526 15.36C33.4626 15.36 42.4926 17.3 45.1526 17.59H45.1626Z" fill="#EB5050"/>
<path d="M30.3626 9.10001C33.8726 9.10001 37.1826 8.94001 40.1426 8.67001C36.4626 7.54001 32.6426 7.01001 30.3626 7.01001C28.0826 7.01001 24.2626 7.53001 20.5826 8.67001C23.5526 8.94001 26.8526 9.10001 30.3626 9.10001Z" fill="white"/>
</svg>
