<svg width="83" height="100" viewBox="0 0 83 100" fill="none" xmlns="http://www.w3.org/2000/svg">
<path d="M56.5179 35.5426C57.014 34.1395 59.0605 32.8372 59.9133 33.3333C60.766 33.8295 61.2388 36.2791 60.89 37.8217C60.5334 39.3644 59.1148 42.1395 58.6109 42.6822C58.1148 43.2248 56.2621 44.3411 55.1226 44.0388L56.5257 35.5426H56.5179Z" fill="#FAD4AF"/>
<path d="M57.0218 34.6899C56.8047 34.9612 56.6264 35.2481 56.5257 35.5426L55.1226 44.0388C55.859 44.2403 56.89 43.845 57.6574 43.3953L57.014 34.6899H57.0218Z" fill="#F09E78"/>
<path d="M26.5876 35.5426C26.0915 34.1395 24.0527 32.8372 23.1923 33.3333C22.3396 33.8295 21.8667 36.2791 22.2233 37.8217C22.5799 39.3644 23.9985 42.1395 24.5023 42.6822C24.9985 43.2248 26.8512 44.3411 27.9907 44.0388L26.5876 35.5426Z" fill="#FAD4AF"/>
<path d="M26.0915 34.6899C26.3085 34.9612 26.4868 35.2481 26.5876 35.5426L27.9907 44.0388C27.2543 44.2403 26.2233 43.845 25.4558 43.3953L26.0992 34.6899H26.0915Z" fill="#F09E78"/>
<path d="M30.7194 39.6279C30.7194 39.6279 31.5721 49.5969 31.7659 54.3876C31.9597 59.1783 32.3318 62.3566 26.6884 66.5349C21.0372 70.7132 17.9055 72.6589 16.1535 74.031C14.4016 75.4109 13.6884 76.217 12.9752 77.6357C12.262 79.062 10.4171 83.0233 10.6496 83.3333C11.9752 85.093 25.3396 93.1085 41.5566 93.1085C57.7737 93.1085 71.138 85.0853 72.4636 83.3333C72.6961 83.031 70.8512 79.062 70.138 77.6357C69.4248 76.2093 68.7117 75.4031 66.9597 74.031C65.2078 72.6512 62.0682 70.7054 56.4248 66.5349C50.7737 62.3566 51.1613 59.1783 51.3473 54.3876C51.5411 49.5969 52.3938 39.6279 52.3938 39.6279H30.7272H30.7194Z" fill="url(#paint0_linear_1_541)"/>
<path d="M47.6418 58.2713C48.7814 57.0077 50.0914 55.6667 51.3628 53.8217C51.5876 48.8527 52.386 39.6201 52.386 39.6201H30.7194C30.7194 39.6201 31.5101 48.8527 31.7426 53.8217C33.0139 55.6667 34.324 57.0077 35.4635 58.2713C38.107 61.2093 39.9597 62.1395 41.5566 62.1395C43.1535 62.1395 44.9984 61.2015 47.6496 58.2713H47.6418Z" fill="#F09E78"/>
<path d="M41.5567 8.82172C27.1536 8.82172 24.9365 18.5969 24.9365 24.2016C24.9365 29.8062 25.4326 35.1163 27.4326 42.7132C29.2699 49.6899 32.8202 52.2016 35.4714 54.4341C38.1148 56.6667 39.9675 57.3799 41.5644 57.3799C43.1613 57.3799 45.0063 56.6667 47.6574 54.4341C50.3009 52.2016 53.859 49.6899 55.6962 42.7132C57.6885 35.1163 58.1923 29.8062 58.1923 24.2016C58.1923 18.5969 55.9675 8.82172 41.5722 8.82172H41.5567Z" fill="url(#paint1_linear_1_541)"/>
<path d="M70.6419 77.3799C69.89 75.8682 69.138 75.0155 67.3086 73.5814C66.5334 72.9768 65.5256 72.2791 64.1225 71.3101C62.3629 70.093 59.9442 68.4264 56.7582 66.0698C54.2931 64.2481 53.0373 62.6434 52.4094 60.9845L41.5489 70.3101L41.5644 70.3256H41.5334L41.5489 70.3101L30.6884 60.9845C30.0605 62.6434 28.8047 64.2481 26.3473 66.0698C23.1613 68.4264 20.7504 70.0853 18.9908 71.3023C17.5877 72.2713 16.5799 72.969 15.797 73.5737C13.9597 75.0078 13.2156 75.8682 12.4559 77.3721C9.65743 82.969 10.0295 83.4574 10.1846 83.6667C11.6807 85.6434 25.4094 93.6667 41.5489 93.6667C57.6884 93.6667 71.4171 85.6434 72.9132 83.6667C73.0683 83.4574 73.4404 82.969 70.6419 77.3721V77.3799Z" fill="#E5EBF2"/>
<g style="mix-blend-mode:multiply">
<path d="M31.735 59.2248L41.5567 70.3179L32.4094 82.5194L28.797 63.3566L31.735 59.2248Z" fill="#D7DCE3"/>
</g>
<g style="mix-blend-mode:multiply">
<path d="M51.3783 59.2248L41.5566 70.3179L50.7039 82.5194L54.3086 63.3566L51.3783 59.2248Z" fill="#D7DCE3"/>
</g>
<path d="M41.5566 93.6822C43.4481 93.6822 45.3008 93.5659 47.107 93.3721L43.5023 76.7907L46.6186 71.4264V67.5349H44.8047L41.5644 70.3179L41.5799 70.3333H41.5489L41.5644 70.3179L38.3241 67.5349H36.5101V71.4264L39.6264 76.7907L36.0217 93.3721C37.8279 93.5659 39.6806 93.6822 41.5721 93.6822H41.5566Z" fill="url(#paint2_linear_1_541)"/>
<path d="M31.735 59.2248L41.5567 70.3179L32.4094 77.876L28.797 63.3566L31.735 59.2248Z" fill="white"/>
<path d="M29.045 63.6589C28.3629 64.4341 27.4946 65.2326 26.3473 66.0775C23.1613 68.4341 20.7504 70.093 18.9908 71.3101C17.5877 72.2791 16.5799 72.9768 15.797 73.5814C13.9597 75.0155 13.2156 75.876 12.4559 77.3799C9.65742 82.9768 10.0295 83.4651 10.1846 83.6744C11.6032 85.5504 24.0063 92.8527 39.045 93.6047L29.0373 63.6512L29.045 63.6589Z" fill="url(#paint3_linear_1_541)"/>
<path d="M39.3086 93.6202C39.3629 93.6202 39.3861 93.6047 39.3861 93.6047L29.9753 61.6977C29.9753 61.6977 27.014 64.4186 26.6574 64.8062C26.3009 65.2016 26.3396 65.6589 26.3551 66.0698C26.3706 66.4806 26.4791 80.1473 26.4791 80.8915C26.4791 81.6357 26.797 82.1706 27.3706 82.5659C27.9443 82.9535 33.7427 86.2636 34.0993 86.5194C34.4559 86.7675 34.3086 87.1241 34.0295 87.0155C33.7427 86.907 24.4171 83.2403 23.6729 83.1008C22.9288 82.9613 22.6032 83.6667 22.4636 84.2713C22.3551 84.7442 23.9055 88.093 25.3551 91.1473C29.5102 92.4109 34.2621 93.3799 39.3164 93.6124L39.3086 93.6202Z" fill="#273852"/>
<path d="M51.3783 59.2248L41.5566 70.3179L50.7039 77.876L54.3086 63.3566L51.3783 59.2248Z" fill="white"/>
<path d="M54.0605 63.6589C54.7427 64.4341 55.6109 65.2326 56.7582 66.0775C59.9443 68.4341 62.3551 70.093 64.1148 71.3101C65.5179 72.2791 66.5257 72.9768 67.3086 73.5814C69.1458 75.0155 69.89 75.876 70.6497 77.3799C73.4481 82.9768 73.076 83.4651 72.921 83.6744C71.5024 85.5504 59.0993 92.8527 44.0605 93.6047L54.0683 63.6512L54.0605 63.6589Z" fill="url(#paint4_linear_1_541)"/>
<path d="M43.8047 93.6202C43.7504 93.6202 43.7272 93.6047 43.7272 93.6047L53.138 61.6977C53.138 61.6977 56.0993 64.4186 56.4559 64.8062C56.8124 65.2016 56.7737 65.6589 56.7582 66.0698C56.7427 66.4806 56.6341 80.1473 56.6341 80.8915C56.6341 81.6357 56.3163 82.1706 55.7427 82.5659C55.169 82.9535 49.3706 86.2636 49.014 86.5194C48.6574 86.7675 48.8047 87.1241 49.0838 87.0155C49.3706 86.907 58.6962 83.2403 59.4403 83.1008C60.1845 82.9613 60.5101 83.6667 60.6496 84.2713C60.7582 84.7442 59.2078 88.093 57.7582 91.1473C53.6031 92.4109 48.8512 93.3799 43.7969 93.6124L43.8047 93.6202Z" fill="#273852"/>
<path d="M43.4947 76.783H39.611L39.4249 77.6589H43.6807L43.4947 76.783Z" fill="#611717"/>
<path d="M41.501 46C42.302 46 42.9447 44.6667 43 44C42.7521 44.1965 42.0312 44.7649 41.499 44.7649C40.9669 44.7649 40.2479 44.1965 40 44C40.0553 44.6667 40.698 46 41.501 46Z" fill="#E08464"/>
<defs>
<linearGradient id="paint0_linear_1_541" x1="41.5566" y1="65.5581" x2="41.5566" y2="46.062" gradientUnits="userSpaceOnUse">
<stop stop-color="#FAD4AF"/>
<stop offset="1" stop-color="#F09E78"/>
</linearGradient>
<linearGradient id="paint1_linear_1_541" x1="41.5567" y1="35.907" x2="41.5567" y2="7.89148" gradientUnits="userSpaceOnUse">
<stop stop-color="#FAD4AF"/>
<stop offset="1" stop-color="#F09E78"/>
</linearGradient>
<linearGradient id="paint2_linear_1_541" x1="41.5566" y1="92.1086" x2="41.5566" y2="73.6977" gradientUnits="userSpaceOnUse">
<stop stop-color="#AD2828"/>
<stop offset="1" stop-color="#8C0F0F"/>
</linearGradient>
<linearGradient id="paint3_linear_1_541" x1="24.5644" y1="92.0155" x2="24.5644" y2="67.6822" gradientUnits="userSpaceOnUse">
<stop stop-color="#111924"/>
<stop offset="1" stop-color="#223147"/>
</linearGradient>
<linearGradient id="paint4_linear_1_541" x1="58.5412" y1="92.0155" x2="58.5412" y2="67.6822" gradientUnits="userSpaceOnUse">
<stop stop-color="#111924"/>
<stop offset="1" stop-color="#223147"/>
</linearGradient>
</defs>
</svg>
