<svg width="83" height="100" viewBox="0 0 83 100" fill="none" xmlns="http://www.w3.org/2000/svg">
<path d="M56.5257 35.7209C57.0218 34.3178 59.0605 33.0155 59.921 33.5116C60.7737 34.0078 61.2466 36.4574 60.89 38C60.5334 39.5426 59.1148 42.3178 58.6109 42.8605C58.1148 43.4031 56.2621 44.5194 55.1226 44.2171L56.5257 35.7209Z" fill="#FAD4AF"/>
<path d="M57.0296 34.8682C56.8125 35.1395 56.6342 35.4264 56.5335 35.7209L55.1304 44.2171C55.8668 44.4186 56.8978 44.0233 57.6653 43.5736L57.0218 34.8682H57.0296Z" fill="#F09E78"/>
<path d="M26.5954 35.7209C26.0993 34.3178 24.0528 33.0155 23.2001 33.5116C22.3474 34.0078 21.8745 36.4574 22.2311 38C22.5877 39.5426 24.014 42.3178 24.5102 42.8605C25.0063 43.4031 26.859 44.5194 27.9985 44.2171L26.5954 35.7209Z" fill="#FAD4AF"/>
<path d="M26.0993 34.8682C26.3163 35.1395 26.4946 35.4264 26.5954 35.7209L27.9985 44.2171C27.2621 44.4186 26.2311 44.0233 25.4636 43.5736L26.107 34.8682H26.0993Z" fill="#F09E78"/>
<path d="M30.7272 39.8062C30.7272 39.8062 31.5799 49.7752 31.7737 54.5659C31.9675 59.3566 32.3474 62.5349 26.6962 66.7132C21.0451 70.8915 17.9133 72.8372 16.1613 74.2093C14.4016 75.5891 13.6962 76.3953 12.983 77.8139C12.2699 79.2403 10.4249 83.2015 10.6575 83.5116C11.983 85.2713 25.3474 93.2868 41.5644 93.2868C57.7815 93.2868 71.1458 85.2636 72.4714 83.5116C72.704 83.2093 70.859 79.2403 70.1458 77.8139C69.4326 76.3876 68.7195 75.5814 66.9675 74.2093C65.2078 72.8295 62.076 70.8837 56.4326 66.7132C50.7815 62.5349 51.1613 59.3566 51.3551 54.5659C51.5489 49.7752 52.4016 39.8062 52.4016 39.8062H30.735H30.7272Z" fill="url(#paint0_linear_1_542)"/>
<path d="M47.6497 58.4496C48.7892 57.186 50.0993 55.8449 51.3706 54C51.5954 49.031 52.3938 39.7984 52.3938 39.7984H30.7272C30.7272 39.7984 31.5179 49.031 31.7504 54C33.0217 55.8449 34.3318 57.186 35.4714 58.4496C38.1148 61.3876 39.9597 62.3178 41.5644 62.3178C43.169 62.3178 45.0062 61.3798 47.6574 58.4496H47.6497Z" fill="#F09E78"/>
<path d="M41.5644 9C27.1613 9 24.9442 18.7752 24.9442 24.3798C24.9442 29.9845 25.4481 35.2946 27.4403 42.8915C29.2775 49.8682 32.8279 52.3798 35.4791 54.6124C38.1225 56.845 39.9675 57.5581 41.5721 57.5581C43.1768 57.5581 45.014 56.845 47.6651 54.6124C50.3085 52.3798 53.8667 49.8682 55.7039 42.8915C57.7039 35.2946 58.2 29.9845 58.2 24.3798C58.2 18.7752 55.983 9 41.5799 9H41.5644Z" fill="url(#paint1_linear_1_542)"/>
<path d="M70.6497 77.5581C69.8977 76.0465 69.1458 75.1938 67.3163 73.7597C66.5411 73.155 65.5334 72.4574 64.1303 71.4884C62.3706 70.2713 59.952 68.6046 56.7659 66.248C52.859 63.3566 51.9753 61 51.8512 58.1318C51.828 57.6899 51.4636 57.3876 51.2621 57.4574H51.2388C48.2311 58.4263 44.9675 58.969 41.5566 58.969C38.1458 58.969 34.89 58.4263 31.8745 57.4574H31.8512C31.6497 57.3876 31.2931 57.6899 31.2621 58.1318C31.138 60.9922 30.2543 63.3566 26.3473 66.248C23.1613 68.6046 20.7504 70.2636 18.9908 71.4806C17.5877 72.4496 16.5721 73.1473 15.797 73.7519C13.9597 75.186 13.2156 76.0465 12.4559 77.5504C9.65742 83.1473 10.0295 83.6357 10.1846 83.845C11.6807 85.8217 25.4094 93.845 41.5489 93.845C57.6884 93.845 71.4094 85.8217 72.9132 83.845C73.0683 83.6357 73.4404 83.1473 70.6419 77.5504L70.6497 77.5581Z" fill="url(#paint2_linear_1_542)"/>
<path d="M55.8667 65.5504C55.7194 65.4263 55.5644 65.3023 55.4326 65.186C51.5877 68.7907 46.7815 70.938 41.5644 70.938C36.3474 70.938 31.5489 68.7907 27.6962 65.186C27.5567 65.3101 27.4094 65.4263 27.2621 65.5504C31.2233 69.2791 36.1846 71.5039 41.5644 71.5039C46.9443 71.5039 51.9055 69.2791 55.8667 65.5504Z" fill="#0A0F1A"/>
<path d="M41.501 46C42.302 46 42.9447 44.6667 43 44C42.7521 44.1965 42.0312 44.7649 41.499 44.7649C40.9669 44.7649 40.2479 44.1965 40 44C40.0553 44.6667 40.698 46 41.501 46Z" fill="#E08464"/>
<defs>
<linearGradient id="paint0_linear_1_542" x1="41.5644" y1="65.7364" x2="41.5644" y2="46.2403" gradientUnits="userSpaceOnUse">
<stop stop-color="#FAD4AF"/>
<stop offset="1" stop-color="#F09E78"/>
</linearGradient>
<linearGradient id="paint1_linear_1_542" x1="41.5644" y1="36.0853" x2="41.5644" y2="8.06977" gradientUnits="userSpaceOnUse">
<stop stop-color="#FAD4AF"/>
<stop offset="1" stop-color="#F09E78"/>
</linearGradient>
<linearGradient id="paint2_linear_1_542" x1="41.5644" y1="97.6512" x2="41.5644" y2="55.7752" gradientUnits="userSpaceOnUse">
<stop stop-color="#111924"/>
<stop offset="1" stop-color="#223147"/>
</linearGradient>
</defs>
</svg>
