<svg width="83" height="100" viewBox="0 0 83 100" fill="none" xmlns="http://www.w3.org/2000/svg">
<path d="M56.5257 35.559C57.0218 34.1559 59.0605 32.8536 59.921 33.3497C60.7737 33.8459 61.2466 36.2955 60.89 37.8381C60.5334 39.3807 59.1148 42.1559 58.6109 42.7063C58.1148 43.249 56.2621 44.3652 55.1226 44.0552L56.5257 35.559Z" fill="url(#paint0_linear_1_545)"/>
<path d="M57.0296 34.7063C56.8125 34.9776 56.6342 35.2645 56.5335 35.5668L55.1304 44.0629C55.8668 44.2645 56.8978 43.8691 57.6653 43.4195L57.0218 34.7141L57.0296 34.7063Z" fill="#F09E78"/>
<path d="M26.5954 35.559C26.0993 34.1559 24.0528 32.8536 23.2001 33.3497C22.3474 33.8459 21.8745 36.2955 22.2311 37.8381C22.5877 39.3807 24.0063 42.1559 24.5102 42.7063C25.0063 43.249 26.859 44.3652 27.9985 44.0552L26.5954 35.559Z" fill="url(#paint1_linear_1_545)"/>
<path d="M26.0993 34.7063C26.3164 34.9776 26.4947 35.2645 26.5955 35.5668L27.9986 44.0629C27.2621 44.2645 26.2311 43.8691 25.4559 43.4195L26.0993 34.7141V34.7063Z" fill="#F09E78"/>
<path d="M30.7272 39.6443C30.7272 39.6443 31.5799 49.6133 31.7737 54.404C31.9598 59.1947 32.3396 62.373 26.6962 66.5513C21.0451 70.7296 17.9133 72.6753 16.1613 74.0474C14.4094 75.4273 13.6962 76.2335 12.983 77.6521C12.2699 79.0784 10.4249 83.0397 10.6575 83.3497C11.983 85.1094 25.3474 93.1249 41.5644 93.1249C57.7815 93.1249 71.1458 85.1017 72.4714 83.3497C72.704 83.0474 70.859 79.0784 70.1458 77.6521C69.4327 76.2257 68.7195 75.4195 66.9675 74.0474C65.2156 72.6676 62.0761 70.7218 56.4326 66.5513C50.7815 62.373 51.1613 59.1947 51.3551 54.404C51.5489 49.6133 52.4016 39.6443 52.4016 39.6443H30.735H30.7272Z" fill="url(#paint2_linear_1_545)"/>
<path d="M47.6497 58.2877C48.7892 57.0242 50.0993 55.6831 51.3706 53.8381C51.5954 48.8691 52.3938 39.6366 52.3938 39.6366H30.7272C30.7272 39.6366 31.5179 48.8691 31.7504 53.8381C33.0217 55.6831 34.3318 57.0242 35.4714 58.2877C38.1148 61.2257 39.9597 62.1559 41.5644 62.1559C43.169 62.1559 45.0062 61.218 47.6574 58.2877H47.6497Z" fill="#F09E78"/>
<path d="M41.6202 8.83813C27.2171 8.83813 25 18.6133 25 24.218C25 29.8226 25.4961 35.1327 27.4961 42.7296C29.3333 49.7064 32.8837 52.218 35.5349 54.4505C38.1783 56.6831 40.0233 57.3963 41.6279 57.3963C43.2326 57.3963 45.0698 56.6831 47.7209 54.4505C50.3643 52.218 53.9225 49.7064 55.7597 42.7296C57.7597 35.1327 58.2558 29.8226 58.2558 24.218C58.2558 18.6133 56.031 8.83813 41.6357 8.83813H41.6202Z" fill="url(#paint3_linear_1_545)"/>
<path d="M70.6497 77.3963C69.8977 75.8847 69.1458 75.0319 67.3163 73.5978C66.5411 72.9932 65.5334 72.2955 64.1303 71.3265C62.3706 70.1095 59.952 68.4428 56.7659 66.0862C56.2078 65.6753 55.7272 65.28 55.2853 64.8846C51.89 68.5823 47.2931 72.2645 41.5566 73.9002C35.828 72.2645 31.2311 68.5823 27.828 64.8846C27.3861 65.28 26.9055 65.6753 26.3473 66.0862C23.1613 68.4428 20.7504 70.1017 18.9908 71.3188C17.5877 72.2877 16.5799 72.9854 15.797 73.5901C13.9598 75.0242 13.2156 75.8769 12.4559 77.3885C9.65742 82.9854 10.0295 83.4738 10.1846 83.6831C11.6807 85.6598 25.4094 93.6831 41.5489 93.6831C57.6884 93.6831 71.4094 85.6598 72.9132 83.6831C73.0683 83.4738 73.4404 82.9854 70.6419 77.3885L70.6497 77.3963Z" fill="#E5EBF2"/>
<path d="M18.9984 71.3265C17.5953 72.2955 16.5876 72.9932 15.8046 73.5978C13.9674 75.0319 13.2233 75.8847 12.4636 77.3963C9.66512 82.9932 10.0372 83.4815 10.1922 83.6908C11.5256 85.4505 22.5333 91.9932 36.3163 93.4118L33.9752 82.9157L27.8279 64.8846C27.386 65.28 26.9054 65.6753 26.3473 66.0862C23.1612 68.4428 20.7504 70.1017 18.9907 71.3188L18.9984 71.3265Z" fill="url(#paint4_linear_1_545)"/>
<g style="mix-blend-mode:multiply">
<path d="M23.3318 83.1094C23.6419 82.9467 28.3086 82.5746 29.045 82.7296C29.7814 82.8846 34.3706 84.6908 34.3783 84.6908L33.983 82.9234L27.8357 64.8924C27.8357 64.8924 27.7737 64.9467 27.7427 64.9699C26.5721 69.0862 22.9597 81.6443 22.8047 82.373C22.6186 83.2257 23.0217 83.28 23.3241 83.1172L23.3318 83.1094Z" fill="#B3BDC9"/>
</g>
<path d="M31.7658 59.0242C31.7658 59.0242 31.7813 61.5358 30.0062 63.4273L34.0062 82.5513L34.3782 84.6986C34.3782 84.6986 29.6496 80.4583 28.7968 80.1792C27.9441 79.8924 26.3395 80.0009 24.8124 80.3575C23.2852 80.7141 21.9286 81.0474 21.572 81.156C21.2155 81.2645 20.7503 81.1404 20.9674 80.3187C21.1844 79.497 26.9131 63.2335 27.1069 62.5746C27.3007 61.9156 27.5333 61.3498 28.1922 60.9699C28.8511 60.5978 31.7658 59.0242 31.7658 59.0242Z" fill="url(#paint5_linear_1_545)"/>
<g style="mix-blend-mode:multiply">
<path d="M31.7039 59.7606C29.0837 60.7064 29.8201 62.1172 30.0062 63.4273C31.1845 62.1715 31.5721 60.6521 31.7039 59.7606Z" fill="#B3BDC9"/>
</g>
<path d="M64.1226 71.3265C65.5257 72.2955 66.5334 72.9932 67.3164 73.5978C69.1536 75.0319 69.8978 75.8847 70.6497 77.3963C73.4482 82.9932 73.0761 83.4815 72.921 83.6908C71.5877 85.4505 60.5799 91.9932 46.797 93.4118L49.1381 82.9157L55.2854 64.8846C55.7272 65.28 56.2078 65.6753 56.766 66.0862C59.952 68.4428 62.3629 70.1017 64.1226 71.3188V71.3265Z" fill="url(#paint6_linear_1_545)"/>
<g style="mix-blend-mode:multiply">
<path d="M59.7893 83.1094C59.4792 82.9467 54.8126 82.5746 54.0761 82.7296C53.3397 82.8846 48.7505 84.6908 48.7428 84.6908L49.1381 82.9234L55.2854 64.8924C55.2854 64.8924 55.3474 64.9467 55.3785 64.9699C56.549 69.0862 60.1614 81.6443 60.3164 82.373C60.5025 83.2257 60.0994 83.28 59.7971 83.1172L59.7893 83.1094Z" fill="#B3BDC9"/>
</g>
<path d="M51.3552 59.0242C51.3552 59.0242 51.3397 61.5358 53.1149 63.4273L49.1149 82.5513L48.7428 84.6986C48.7428 84.6986 53.4715 80.4583 54.3242 80.1792C55.1769 79.8924 56.7816 80.0009 58.3087 80.3575C59.8358 80.7141 61.1924 81.0474 61.549 81.156C61.9056 81.2645 62.3707 81.1404 62.1537 80.3187C61.9366 79.497 56.2079 63.2335 56.0141 62.5746C55.8203 61.9156 55.5878 61.3498 54.9288 60.9699C54.2699 60.5978 51.3474 59.0242 51.3474 59.0242H51.3552Z" fill="url(#paint7_linear_1_545)"/>
<g style="mix-blend-mode:multiply">
<path d="M51.4171 59.7606C54.0373 60.7064 53.3008 62.1172 53.1148 63.4273C51.9365 62.1715 51.5489 60.6521 51.4171 59.7606Z" fill="#B3BDC9"/>
</g>
<path d="M41.501 46C42.302 46 42.9447 44.6667 43 44C42.7521 44.1965 42.0312 44.7649 41.499 44.7649C40.9669 44.7649 40.2479 44.1965 40 44C40.0553 44.6667 40.698 46 41.501 46Z" fill="#E08464"/>
<defs>
<linearGradient id="paint0_linear_1_545" x1="60.0218" y1="38.342" x2="51.4947" y2="39.4815" gradientUnits="userSpaceOnUse">
<stop stop-color="#FAD4AF"/>
<stop offset="1" stop-color="#F09E78"/>
</linearGradient>
<linearGradient id="paint1_linear_1_545" x1="21.3551" y1="38.7838" x2="31.7505" y2="38.5203" gradientUnits="userSpaceOnUse">
<stop stop-color="#FAD4AF"/>
<stop offset="1" stop-color="#F09E78"/>
</linearGradient>
<linearGradient id="paint2_linear_1_545" x1="41.5644" y1="65.3575" x2="41.5644" y2="47.9389" gradientUnits="userSpaceOnUse">
<stop stop-color="#FAD4AF"/>
<stop offset="1" stop-color="#F09E78"/>
</linearGradient>
<linearGradient id="paint3_linear_1_545" x1="41.6202" y1="38.5901" x2="41.6202" y2="13.5668" gradientUnits="userSpaceOnUse">
<stop stop-color="#FAD4AF"/>
<stop offset="1" stop-color="#F09E78"/>
</linearGradient>
<linearGradient id="paint4_linear_1_545" x1="23.2078" y1="91.2567" x2="23.2078" y2="65.0009" gradientUnits="userSpaceOnUse">
<stop stop-color="#54749C"/>
<stop offset="1" stop-color="#2B5385"/>
</linearGradient>
<linearGradient id="paint5_linear_1_545" x1="27.6418" y1="79.9699" x2="27.6418" y2="61.5125" gradientUnits="userSpaceOnUse">
<stop stop-color="#799CC7"/>
<stop offset="1" stop-color="#567CAB"/>
</linearGradient>
<linearGradient id="paint6_linear_1_545" x1="59.9133" y1="4.40402" x2="59.9133" y2="4.40402" gradientUnits="userSpaceOnUse">
<stop stop-color="#54749C"/>
<stop offset="1" stop-color="#2B5385"/>
</linearGradient>
<linearGradient id="paint7_linear_1_545" x1="55.4792" y1="4.40401" x2="55.4792" y2="4.40401" gradientUnits="userSpaceOnUse">
<stop stop-color="#799CC7"/>
<stop offset="1" stop-color="#567CAB"/>
</linearGradient>
</defs>
</svg>
