<svg width="83" height="100" viewBox="0 0 83 100" fill="none" xmlns="http://www.w3.org/2000/svg">
<path d="M56.5334 35.5974C57.0295 34.1943 59.076 32.892 59.9287 33.3881C60.7814 33.8842 61.2543 36.3339 60.8977 37.8765C60.5411 39.4191 59.1225 42.1943 58.6186 42.737C58.1225 43.2796 56.2698 44.3959 55.1302 44.0935L56.5334 35.5974Z" fill="#FAD4AF"/>
<path d="M57.0373 34.7447C56.8202 35.016 56.6419 35.3029 56.5412 35.5974L55.1381 44.0936C55.8745 44.2951 56.9055 43.8998 57.6729 43.4501L57.0295 34.7447H57.0373Z" fill="#F09E78"/>
<path d="M26.6031 35.5974C26.107 34.1943 24.0605 32.892 23.2078 33.3881C22.3551 33.8842 21.8822 36.3339 22.2388 37.8765C22.5954 39.4191 24.014 42.1943 24.5179 42.737C25.014 43.2796 26.8667 44.3959 28.0062 44.0935L26.6031 35.5974Z" fill="#FAD4AF"/>
<path d="M26.107 34.7447C26.324 35.016 26.5023 35.3029 26.6031 35.5974L28.0062 44.0936C27.2698 44.2951 26.2388 43.8998 25.4713 43.4501L26.1147 34.7447H26.107Z" fill="#F09E78"/>
<path d="M30.7349 39.6827C30.7349 39.6827 31.5876 49.6517 31.7814 54.4424C31.9752 59.2331 32.3551 62.4114 26.7039 66.5897C21.0527 70.768 17.921 72.7137 16.169 74.0858C14.4093 75.4656 13.7039 76.2718 12.9907 77.6904C12.2775 79.1168 10.4326 83.078 10.6651 83.3881C11.9907 85.1478 25.3551 93.1633 41.5721 93.1633C57.7892 93.1633 71.1535 85.14 72.4791 83.3881C72.7117 83.0858 70.8667 79.1168 70.1535 77.6904C69.4403 76.2641 68.7272 75.4579 66.9752 74.0858C65.2155 72.7059 62.0837 70.7602 56.4403 66.5897C50.7892 62.4114 51.1768 59.2331 51.3628 54.4424C51.5489 49.6517 52.4093 39.6827 52.4093 39.6827H30.7427H30.7349Z" fill="url(#paint0_linear_1_540)"/>
<path d="M47.6575 58.3261C48.797 57.0625 50.1071 55.7214 51.3784 53.8765C51.6032 48.9075 52.4016 39.6749 52.4016 39.6749H30.735C30.735 39.6749 31.5257 48.9075 31.7582 53.8765C33.0296 55.7214 34.3396 57.0625 35.4792 58.3261C38.1226 61.2641 39.9675 62.1943 41.5722 62.1943C43.1768 62.1943 45.0141 61.2563 47.6652 58.3261H47.6575Z" fill="#F09E78"/>
<path d="M41.5722 8.8765C27.1691 8.8765 24.952 18.6517 24.952 24.2563C24.952 29.861 25.4481 35.1711 27.4481 42.768C29.2854 49.7447 32.8357 52.2563 35.4869 54.4889C38.1303 56.7215 39.9753 57.4346 41.5799 57.4346C43.1846 57.4346 45.0218 56.7215 47.673 54.4889C50.3164 52.2563 53.8745 49.7447 55.7117 42.768C57.7117 35.1711 58.2078 29.861 58.2078 24.2563C58.2078 18.6517 55.983 8.8765 41.5877 8.8765H41.5722Z" fill="url(#paint1_linear_1_540)"/>
<path d="M70.6574 77.4346C69.9055 75.923 69.1535 75.0703 67.3163 73.6362C66.5411 73.0315 65.5334 72.3339 64.1303 71.3649C62.4016 70.1711 60.045 68.5432 56.952 66.2641C53.107 73.1013 47.6342 77.3881 41.5566 77.3881C35.4791 77.3881 30.0063 73.1091 26.1613 66.2641C23.0683 68.5432 20.7194 70.1711 18.9908 71.3571C17.5877 72.3261 16.5722 73.0238 15.797 73.6284C13.9597 75.0625 13.2156 75.923 12.4559 77.4269C9.65742 83.0238 10.0295 83.5122 10.1846 83.7215C11.6807 85.6982 25.4094 93.7215 41.5489 93.7215C57.6884 93.7215 71.4094 85.6982 72.9132 83.7215C73.0683 83.5122 73.4404 83.0238 70.6419 77.4269L70.6574 77.4346Z" fill="#E5EBF2"/>
<path d="M26.8978 65.7137C26.7195 65.8532 26.8126 66.1245 26.6188 66.2641C23.4327 68.6207 20.9133 70.2796 19.1537 71.4966C17.7506 72.4656 16.7971 73.1866 16.0219 73.799C14.1847 75.2331 13.611 75.8765 12.8513 77.3881C10.0606 82.985 10.0529 83.5199 10.2079 83.7292C11.5878 85.5509 23.2854 92.4656 37.704 93.5741V77.0393C37.704 76.0083 37.5955 75.3338 37.2389 75.047C36.9133 74.7912 28.4017 67.078 26.8978 65.7137Z" fill="url(#paint2_linear_1_540)"/>
<path d="M15.2389 79.6439C15.9986 77.9307 16.7583 77.1245 18.1304 76.2641C19.0528 75.6904 25.6032 71.2563 29.8358 68.3804C28.4869 67.1555 27.3474 66.1323 26.89 65.7137C26.7117 65.8532 26.549 65.985 26.3552 66.1245C23.1691 68.4811 20.7583 70.14 18.9986 71.3571C17.5955 72.3261 16.58 73.0238 15.8048 73.6284C13.9676 75.0625 13.2234 75.923 12.4637 77.4269C9.66524 83.0238 10.0373 83.5121 10.1924 83.7214C10.5257 84.1556 11.4482 84.8842 12.859 85.7524C13.4714 84.0935 14.673 80.8842 15.2311 79.6362L15.2389 79.6439Z" fill="#E4F0E7"/>
<path d="M32.2622 60.8765C31.8436 60.4889 31.5723 60.2331 31.5723 60.2331C31.5723 60.2331 31.8668 58.5897 31.8668 57.2563C31.8668 55.923 31.7428 53.6284 31.7428 53.6284C31.7428 53.6284 29.6343 55.1556 28.5878 56.0315C27.5413 56.9075 27.2002 57.6362 27.2002 58.6672C27.2002 59.6982 26.6265 65.6982 26.6188 65.9462C26.6188 66.1943 26.7893 66.5664 27.1071 66.9773C27.332 67.2563 28.0296 69.0703 30.7273 71.5121V62.2098C30.7273 61.3649 31.1769 60.8145 32.2544 60.8842L32.2622 60.8765Z" fill="#E4F0E7"/>
<path d="M32.2622 60.8765C31.8436 60.4889 31.5723 60.2331 31.5723 60.2331C31.5723 60.2331 31.8668 58.5897 31.8668 57.2563C31.8668 55.923 31.7428 53.6284 31.7428 53.6284C31.7428 53.6284 29.6343 55.1556 28.5878 56.0315C28.3552 56.2253 28.1614 56.4114 27.9986 56.5897C27.7428 57.4114 27.9056 58.1478 28.2157 58.6439C28.6265 59.3028 29.642 60.4966 30.8513 61.5819C31.0451 61.109 31.487 60.83 32.2699 60.8842L32.2622 60.8765Z" fill="#F2FFF5"/>
<path d="M37.1692 73.8765V66.6129C37.1692 66.0393 36.9212 65.2253 36.4405 64.7602C36.0762 64.4113 33.5181 62.0393 32.2622 60.8687C31.1847 60.7989 30.7351 61.3493 30.7351 62.1943V71.4966C31.9444 72.5896 33.5568 73.8144 35.7041 75.078H36.7739C37.239 75.078 37.1615 74.3648 37.1615 73.8687L37.1692 73.8765Z" fill="#267A50"/>
<path d="M37.1691 66.6129C37.1691 66.0393 36.921 65.2253 36.4404 64.7602C36.0761 64.4114 33.5179 62.0393 32.2621 60.8687C31.4869 60.8222 31.0373 61.0936 30.8435 61.5664C31.4171 62.1323 34.1458 64.8222 34.7195 65.3726C35.3629 65.9928 35.5722 66.4889 35.5722 67.5587V75.0005C35.6187 75.0238 35.6575 75.0548 35.704 75.078H36.7737C37.2389 75.078 37.1613 74.3649 37.1613 73.8687V66.6052L37.1691 66.6129Z" fill="#319D67"/>
<path d="M31.5723 60.2331C31.5723 60.2331 31.8668 59.2873 31.8668 57.2563C31.8668 56.7137 31.8436 56.0082 31.8203 55.3648C29.9986 56.0703 29.6498 57.1245 29.5103 57.6904C29.3475 58.3338 30.7893 59.4501 31.5645 60.2408L31.5723 60.2331Z" fill="#BDC7BF"/>
<path d="M17.1148 88.0393C17.3009 88.1323 17.4947 88.2176 17.6885 88.3106C17.6497 83.985 16.7505 80.737 15.8203 78.5121C15.6962 78.7214 15.58 78.9463 15.4559 79.1866C16.2776 81.2873 17.0373 84.2253 17.1071 88.0393H17.1148Z" fill="#267A50"/>
<path d="M13.6187 75.6672C14.0141 76.2253 14.7582 77.4036 15.4559 79.1943C15.5722 78.954 15.6962 78.7214 15.8203 78.5199C15.1148 76.83 14.3862 75.7369 14.0063 75.2331C13.8668 75.3803 13.735 75.5276 13.611 75.6672H13.6187Z" fill="#BDC7BF"/>
<path d="M56.2389 65.7137C56.4172 65.8532 56.3242 66.1245 56.5179 66.2641C59.704 68.6207 62.2234 70.2796 63.9831 71.4966C65.3862 72.4656 66.3397 73.1866 67.1148 73.799C68.9521 75.2331 69.5257 75.8765 70.2854 77.3881C73.0838 82.985 73.0916 83.5199 72.9366 83.7292C71.5567 85.5509 59.859 92.4656 45.4404 93.5741V77.0393C45.4404 76.0083 45.549 75.3338 45.9055 75.047C46.2311 74.7912 54.7428 67.078 56.2466 65.7137H56.2389Z" fill="url(#paint3_linear_1_540)"/>
<path d="M67.8978 79.6439C67.1381 77.9307 66.3784 77.1245 65.0063 76.2641C64.0838 75.6904 57.5335 71.2563 53.3009 68.3804C54.6497 67.1555 55.7815 66.1323 56.2466 65.7137C56.4249 65.8532 56.5877 65.985 56.7815 66.1245C59.9676 68.4811 62.3784 70.14 64.1381 71.3571C65.5412 72.3261 66.549 73.0238 67.3319 73.6284C69.1691 75.0625 69.9133 75.923 70.673 77.4269C73.4714 83.0238 73.0994 83.5121 72.9443 83.7214C72.611 84.1556 71.6885 84.8842 70.2776 85.7524C69.6652 84.0935 68.4559 80.8842 67.9056 79.6362L67.8978 79.6439Z" fill="#E4F0E7"/>
<path d="M50.8745 60.8765C51.2931 60.4889 51.5644 60.2331 51.5644 60.2331C51.5644 60.2331 51.2699 58.5897 51.2699 57.2563C51.2699 55.923 51.3939 53.6284 51.3939 53.6284C51.3939 53.6284 53.4947 55.1556 54.5489 56.0315C55.5954 56.9075 55.9365 57.6362 55.9365 58.6672C55.9365 59.6982 56.5102 65.6982 56.5179 65.9462C56.5179 66.1943 56.3474 66.5664 56.0296 66.9773C55.8047 67.2563 55.0993 69.0703 52.4094 71.5121V62.2098C52.4094 61.3649 51.9598 60.8145 50.8823 60.8842L50.8745 60.8765Z" fill="#E4F0E7"/>
<path d="M50.8745 60.8765C51.2931 60.4889 51.5644 60.2331 51.5644 60.2331C51.5644 60.2331 51.2699 58.5897 51.2699 57.2563C51.2699 55.923 51.3939 53.6284 51.3939 53.6284C51.3939 53.6284 53.4947 55.1556 54.5489 56.0315C54.7815 56.2253 54.9753 56.4114 55.1381 56.5897C55.3939 57.4114 55.2311 58.1478 54.921 58.6439C54.5102 59.3028 53.4947 60.4966 52.2931 61.5819C52.0993 61.109 51.6575 60.83 50.8745 60.8842V60.8765Z" fill="#F2FFF5"/>
<path d="M45.9675 73.8765V66.6129C45.9675 66.0393 46.2156 65.2253 46.6962 64.7602C47.0606 64.4113 49.6187 62.0393 50.8745 60.8687C51.952 60.7989 52.4016 61.3493 52.4016 62.1943V71.4966C51.1923 72.5896 49.5799 73.8144 47.4326 75.078H46.3629C45.8978 75.078 45.9753 74.3648 45.9753 73.8687L45.9675 73.8765Z" fill="#267A50"/>
<path d="M45.9675 66.6129C45.9675 66.0393 46.2156 65.2253 46.6962 64.7602C47.0606 64.4114 49.6187 62.0393 50.8745 60.8687C51.6497 60.8222 52.0993 61.0936 52.2931 61.5664C51.7195 62.1323 48.9908 64.8222 48.4171 65.3726C47.7737 65.9928 47.5644 66.4889 47.5644 67.5587V75.0005C47.5179 75.0238 47.4792 75.0548 47.4326 75.078H46.3629C45.8978 75.078 45.9753 74.3649 45.9753 73.8687V66.6052L45.9675 66.6129Z" fill="#319D67"/>
<path d="M51.5645 60.2331C51.5645 60.2331 51.2699 59.2873 51.2699 57.2563C51.2699 56.7137 51.2932 56.0082 51.3164 55.3648C53.1381 56.0703 53.4792 57.1245 53.6265 57.6904C53.7893 58.3338 52.3474 59.4501 51.5722 60.2408L51.5645 60.2331Z" fill="#BDC7BF"/>
<path d="M66.0219 88.0393C65.8358 88.1323 65.642 88.2176 65.4482 88.3106C65.487 83.985 66.3862 80.737 67.3165 78.5121C67.4405 78.7214 67.5568 78.9463 67.6808 79.1866C66.8591 81.2873 66.0994 84.2253 66.0219 88.0393Z" fill="#267A50"/>
<path d="M69.518 75.6672C69.1226 76.2253 68.3784 77.4036 67.6807 79.1943C67.5645 78.954 67.4404 78.7214 67.3164 78.5199C68.0218 76.83 68.7505 75.7369 69.1304 75.2331C69.2699 75.3803 69.4017 75.5276 69.5257 75.6672H69.518Z" fill="#BDC7BF"/>
<path d="M41.501 46C42.302 46 42.9447 44.6667 43 44C42.7521 44.1965 42.0312 44.7649 41.499 44.7649C40.9669 44.7649 40.2479 44.1965 40 44C40.0553 44.6667 40.698 46 41.501 46Z" fill="#E08464"/>
<defs>
<linearGradient id="paint0_linear_1_540" x1="41.5721" y1="65.6129" x2="41.5721" y2="46.1168" gradientUnits="userSpaceOnUse">
<stop stop-color="#FAD4AF"/>
<stop offset="1" stop-color="#F09E78"/>
</linearGradient>
<linearGradient id="paint1_linear_1_540" x1="41.5722" y1="35.9618" x2="41.5722" y2="7.94626" gradientUnits="userSpaceOnUse">
<stop stop-color="#FAD4AF"/>
<stop offset="1" stop-color="#F09E78"/>
</linearGradient>
<linearGradient id="paint2_linear_1_540" x1="23.9289" y1="73.8842" x2="23.9289" y2="99.7214" gradientUnits="userSpaceOnUse">
<stop stop-color="#319D67"/>
<stop offset="1" stop-color="#237061"/>
</linearGradient>
<linearGradient id="paint3_linear_1_540" x1="59.2079" y1="-92.6041" x2="59.2079" y2="-92.6041" gradientUnits="userSpaceOnUse">
<stop stop-color="#319D67"/>
<stop offset="1" stop-color="#237061"/>
</linearGradient>
</defs>
</svg>
