<svg width="83" height="100" viewBox="0 0 83 100" fill="none" xmlns="http://www.w3.org/2000/svg">
<path d="M56.5179 35.8062C57.014 34.4031 59.0605 33.1008 59.9133 33.5969C60.766 34.093 61.2388 36.5426 60.89 38.0853C60.5334 39.6279 59.1148 42.4031 58.6109 42.9457C58.1148 43.4884 56.2621 44.6047 55.1226 44.3023L56.5257 35.8062H56.5179Z" fill="#FAD4AF"/>
<path d="M57.0218 34.9535C56.8047 35.2248 56.6264 35.5116 56.5257 35.814L55.1226 44.3101C55.859 44.5116 56.89 44.1163 57.6574 43.6667L57.014 34.9612L57.0218 34.9535Z" fill="#F09E78"/>
<path d="M26.5876 35.8062C26.0915 34.4031 24.0527 33.1008 23.1923 33.5969C22.3396 34.093 21.8667 36.5426 22.2233 38.0853C22.5799 39.6279 23.9985 42.4031 24.5023 42.9457C24.9985 43.4884 26.8512 44.6047 27.9907 44.3023L26.5876 35.8062Z" fill="#FAD4AF"/>
<path d="M26.0915 34.9535C26.3085 35.2248 26.4868 35.5116 26.5876 35.814L27.9907 44.3101C27.2543 44.5116 26.2233 44.1163 25.4558 43.6667L26.0992 34.9612L26.0915 34.9535Z" fill="#F09E78"/>
<path d="M30.7194 39.8915C30.7194 39.8915 31.5721 49.8605 31.7659 54.6512C31.9597 59.4419 32.3318 62.6201 26.6884 66.7984C21.0372 70.9767 17.9055 72.9225 16.1535 74.2946C14.4016 75.6744 13.6884 76.4806 12.9752 77.8992C12.262 79.3256 10.4171 83.2868 10.6496 83.5969C11.9752 85.3566 25.3396 93.3721 41.5566 93.3721C57.7737 93.3721 71.138 85.3488 72.4636 83.5969C72.6961 83.2946 70.8512 79.3256 70.138 77.8992C69.4248 76.4729 68.7117 75.6667 66.9597 74.2946C65.2078 72.9147 62.0682 70.969 56.4248 66.7984C50.7737 62.6201 51.1613 59.4419 51.3473 54.6512C51.5411 49.8605 52.3938 39.8915 52.3938 39.8915H30.7272H30.7194Z" fill="url(#paint0_linear_1_544)"/>
<path opacity="0.5" d="M23.6885 68.2791C32.2854 70.752 41.5567 72.124 41.5567 72.124C41.5567 72.124 50.828 70.752 59.4249 68.2791C50.828 72.969 41.5567 75.5659 41.5567 75.5659C41.5567 75.5659 32.2854 72.969 23.6885 68.2791Z" fill="#F09E78"/>
<path d="M47.6418 58.5349C48.7814 57.2713 50.0914 55.9302 51.3628 54.0853C51.5876 49.1163 52.386 39.8837 52.386 39.8837H30.7194C30.7194 39.8837 31.5101 49.1163 31.7426 54.0853C33.0139 55.9302 34.324 57.2713 35.4635 58.5349C38.107 61.4729 39.9597 62.4031 41.5566 62.4031C43.1535 62.4031 44.9984 61.4651 47.6496 58.5349H47.6418Z" fill="#F09E78"/>
<path d="M41.5567 9.08527C27.1536 9.08527 24.9365 18.8605 24.9365 24.4651C24.9365 30.0698 25.4326 35.3798 27.4326 42.9767C29.2699 49.9535 32.8202 52.4651 35.4714 54.6977C38.1148 56.9302 39.9675 57.6434 41.5644 57.6434C43.1613 57.6434 45.0063 56.9302 47.6574 54.6977C50.3009 52.4651 53.859 49.9535 55.6962 42.9767C57.6885 35.3876 58.1923 30.0698 58.1923 24.4651C58.1923 18.8605 55.9675 9.08527 41.5722 9.08527H41.5567Z" fill="url(#paint1_linear_1_544)"/>
<path d="M62.4946 70.4496C61.5954 69.8217 60.5721 69.1008 59.4171 68.2791C50.8202 71.938 41.5489 73.9612 41.5489 73.9612C41.5489 73.9612 32.2776 71.938 23.6807 68.2791C22.5256 69.1085 21.5101 69.8217 20.6031 70.4496L41.5411 90.0233L62.4869 70.4496H62.4946Z" fill="url(#paint2_linear_1_544)"/>
<path d="M70.6419 77.6434C69.89 76.1318 69.138 75.2791 67.3086 73.845C66.5334 73.2403 65.5256 72.5426 64.1225 71.5736C63.6342 71.2325 63.0915 70.8605 62.4946 70.4496L41.5489 90.0232L20.6109 70.4496C20.0218 70.8605 19.4791 71.2325 18.9908 71.5736C17.5877 72.5426 16.5799 73.2403 15.797 73.845C13.9597 75.2791 13.2156 76.1395 12.4559 77.6434C9.65743 83.2403 10.0295 83.7287 10.1846 83.938C11.6807 85.9147 25.4094 93.938 41.5489 93.938C57.6884 93.938 71.4171 85.9147 72.9132 83.938C73.0683 83.7287 73.4404 83.2403 70.6419 77.6434Z" fill="#7A1C1C"/>
<path d="M50.0993 93.2248V87.2558H47.5334V93.5891C48.4017 93.4884 49.2544 93.3643 50.0993 93.2248Z" fill="#F5B431"/>
<path d="M33.014 93.2248C33.859 93.3643 34.7117 93.4884 35.5722 93.5891V87.2558H33.014V93.2248Z" fill="#F5B431"/>
<path d="M31.766 54.6512C31.9598 59.4418 32.3319 62.6201 26.6884 66.7984C26.6884 66.7984 33.4946 81.6279 41.5567 88.7442V91.9457C41.5567 91.9457 29.6729 88.1705 26.7195 85.8217C23.7737 83.4729 15.5102 74.0698 15.5102 74.0698C15.5102 74.0698 14.8745 71.2325 16.2931 69.4496C17.7195 67.6667 19.1381 66.7364 20.2078 64.6046C21.2776 62.4651 23.3551 60.0465 25.4481 58.4806C27.5412 56.9147 31.766 54.6357 31.766 54.6357V54.6512Z" fill="url(#paint3_linear_1_544)"/>
<g style="mix-blend-mode:multiply">
<path d="M31.8202 56.0542C30.2853 57.6356 27.7116 60.4341 27.1845 61.8139C26.4248 63.8062 26.6884 66.7984 26.6884 66.7984C31.7659 63.0465 31.9752 60.093 31.8202 56.0542Z" fill="#BDA6A6"/>
</g>
<path d="M51.3397 54.6512C51.1459 59.4418 50.7738 62.6201 56.4172 66.7984C56.4172 66.7984 49.611 81.6279 41.549 88.7442V91.9457C41.549 91.9457 53.4327 88.1705 56.3862 85.8217C59.3319 83.4729 67.5955 74.0698 67.5955 74.0698C67.5955 74.0698 68.2311 71.2325 66.8125 69.4496C65.3862 67.6667 63.9676 66.7364 62.8978 64.6046C61.828 62.4651 59.7505 60.0465 57.6575 58.4806C55.5645 56.9147 51.3397 54.6357 51.3397 54.6357V54.6512Z" fill="url(#paint4_linear_1_544)"/>
<g style="mix-blend-mode:multiply">
<path d="M51.2854 56.0542C52.8203 57.6356 55.3939 60.4341 55.921 61.8139C56.6807 63.8062 56.4172 66.7984 56.4172 66.7984C51.3396 63.0465 51.1381 60.093 51.2854 56.0542Z" fill="#BDA6A6"/>
</g>
<path d="M41.501 46C42.302 46 42.9447 44.6667 43 44C42.7521 44.1965 42.0312 44.7649 41.499 44.7649C40.9669 44.7649 40.2479 44.1965 40 44C40.0553 44.6667 40.698 46 41.501 46Z" fill="#E08464"/>
<defs>
<linearGradient id="paint0_linear_1_544" x1="41.5566" y1="70.6201" x2="41.5566" y2="45.4574" gradientUnits="userSpaceOnUse">
<stop stop-color="#FAD4AF"/>
<stop offset="1" stop-color="#F09E78"/>
</linearGradient>
<linearGradient id="paint1_linear_1_544" x1="41.5567" y1="38.8372" x2="41.5567" y2="13.8139" gradientUnits="userSpaceOnUse">
<stop stop-color="#FAD4AF"/>
<stop offset="1" stop-color="#F09E78"/>
</linearGradient>
<linearGradient id="paint2_linear_1_544" x1="41.5566" y1="73.9147" x2="41.5566" y2="84.6744" gradientUnits="userSpaceOnUse">
<stop stop-color="white"/>
<stop offset="1" stop-color="#E5EBF2"/>
</linearGradient>
<linearGradient id="paint3_linear_1_544" x1="28.4636" y1="90.1938" x2="28.4636" y2="54.2325" gradientUnits="userSpaceOnUse">
<stop stop-color="#AD2828"/>
<stop offset="1" stop-color="#8C0F0F"/>
</linearGradient>
<linearGradient id="paint4_linear_1_544" x1="54.6497" y1="4.65115" x2="54.6497" y2="4.65115" gradientUnits="userSpaceOnUse">
<stop stop-color="#AD2828"/>
<stop offset="1" stop-color="#8C0F0F"/>
</linearGradient>
</defs>
</svg>
