<svg width="83" height="100" viewBox="0 0 83 100" fill="none" xmlns="http://www.w3.org/2000/svg">
<path d="M56.5255 35.7209C57.0217 34.3178 59.0604 33.0155 59.9209 33.5116C60.7736 34.0078 61.2465 36.4574 60.8899 38C60.5333 39.5426 59.1147 42.3178 58.6108 42.8605C58.1147 43.4031 56.262 44.5194 55.1224 44.2171L56.5255 35.7209Z" fill="#FAD4AF"/>
<path d="M57.0295 34.8682C56.8124 35.1395 56.6341 35.4264 56.5333 35.7287L55.1302 44.2248C55.8667 44.4264 56.8977 44.031 57.6651 43.5814L57.0217 34.876L57.0295 34.8682Z" fill="#F09E78"/>
<path d="M26.5953 35.7209C26.0992 34.3178 24.0527 33.0155 23.2 33.5116C22.3473 34.0078 21.8744 36.4574 22.2232 38C22.5798 39.5426 23.9984 42.3178 24.5023 42.8605C24.9984 43.4031 26.8512 44.5194 27.9907 44.2171L26.5876 35.7209H26.5953Z" fill="#FAD4AF"/>
<path d="M26.0992 34.8682C26.3162 35.1395 26.4945 35.4264 26.5953 35.7287L27.9984 44.2248C27.262 44.4264 26.2309 44.031 25.4635 43.5814L26.1069 34.876L26.0992 34.8682Z" fill="#F09E78"/>
<path d="M30.7272 39.8062C30.7272 39.8062 31.5799 49.7752 31.7737 54.5659C31.9675 59.3566 32.3474 62.5349 26.6962 66.7132C21.0451 70.8915 17.9133 72.8372 16.1613 74.2093C14.4016 75.5892 13.6962 76.3954 12.983 77.814C12.2699 79.2403 10.4249 83.2016 10.6575 83.5116C11.983 85.2713 25.3474 93.2868 41.5644 93.2868C57.7815 93.2868 71.1458 85.2636 72.4714 83.5116C72.704 83.2093 70.859 79.2403 70.1458 77.814C69.4326 76.3876 68.7195 75.5814 66.9675 74.2093C65.2078 72.8295 62.076 70.8837 56.4326 66.7132C50.7815 62.5349 51.1613 59.3566 51.3551 54.5659C51.5489 49.7752 52.4016 39.8062 52.4016 39.8062H30.735H30.7272Z" fill="url(#paint0_linear_1_543)"/>
<path d="M47.6497 58.4496C48.7892 57.1861 50.0993 55.845 51.3706 54C51.5954 49.031 52.3938 39.7985 52.3938 39.7985H30.7272C30.7272 39.7985 31.5179 49.031 31.7504 54C33.0217 55.845 34.3318 57.1861 35.4714 58.4496C38.1148 61.3876 39.9597 62.3178 41.5644 62.3178C43.169 62.3178 45.0062 61.3798 47.6574 58.4496H47.6497Z" fill="#F09E78"/>
<path d="M41.5644 9C27.1613 9 24.9442 18.7752 24.9442 24.3798C24.9442 29.9845 25.4481 35.2946 27.4403 42.8915C29.2775 49.8682 32.8279 52.3798 35.4791 54.6124C38.1225 56.845 39.9675 57.5581 41.5721 57.5581C43.1768 57.5581 45.014 56.845 47.6651 54.6124C50.3085 52.3798 53.8667 49.8682 55.7039 42.8915C57.7039 35.3023 58.2 29.9845 58.2 24.3798C58.2 18.7752 55.9752 9 41.5799 9H41.5644Z" fill="url(#paint1_linear_1_543)"/>
<path d="M67.3163 73.7597C66.5411 73.1551 65.5334 72.4574 64.1303 71.4884C63.2776 70.8992 62.2621 70.2016 61.0838 69.3721C55.6962 72.9613 48.921 75.1085 41.5566 75.1085C34.1923 75.1085 27.4171 72.9613 22.0295 69.3721C20.859 70.2016 19.8435 70.8992 18.9908 71.4884C17.5877 72.4574 16.5721 73.1551 15.797 73.7597C13.9597 75.1938 13.2156 76.0543 12.4559 77.5582C9.65742 83.1551 10.0295 83.6434 10.1846 83.8527C11.6807 85.8295 25.4094 93.8527 41.5489 93.8527C57.6884 93.8527 71.4171 85.8295 72.9132 83.8527C73.0683 83.6434 73.4404 83.1551 70.6419 77.5582C69.89 76.0465 69.138 75.1938 67.3086 73.7597H67.3163Z" fill="#E5EBF2"/>
<path d="M25.518 66.9458C24.6497 67.5659 23.2931 68.5426 22.0373 69.3721C20.8668 70.2016 19.8513 70.8992 18.9986 71.4884C17.5955 72.4574 16.58 73.1551 15.8048 73.7597C13.9676 75.1938 13.2234 76.0543 12.4637 77.5582C9.66524 83.1551 10.0373 83.6434 10.1924 83.8527C11.2854 85.3023 18.9133 89.969 29.2389 92.3799L26.1381 67.1085C26.1381 67.1085 25.9366 66.9845 25.5024 66.938L25.518 66.9458Z" fill="#F5B431"/>
<path d="M20.4171 70.5039L22.8745 90.5194C23.0683 90.5892 23.2698 90.6589 23.4714 90.7209L20.9442 70.1318C20.7659 70.2558 20.5877 70.3799 20.4171 70.4961V70.5039Z" fill="#F58631"/>
<path d="M57.6031 66.9458C58.4714 67.5659 59.8279 68.5426 61.0837 69.3721C62.2543 70.2016 63.2698 70.8992 64.1225 71.4884C65.5256 72.4574 66.5334 73.1551 67.3163 73.7597C69.1535 75.1938 69.8977 76.0543 70.6574 77.5582C73.4558 83.1551 73.0837 83.6434 72.9287 83.8527C71.8357 85.3023 64.2078 89.969 53.8822 92.3799L56.983 67.1085C56.983 67.1085 57.1845 66.9845 57.6186 66.938L57.6031 66.9458Z" fill="#F5B431"/>
<path d="M62.7039 70.5039L60.2466 90.5194C60.0528 90.5892 59.8512 90.6589 59.6497 90.7209L62.1768 70.1318C62.3551 70.2558 62.5334 70.3799 62.7039 70.4961V70.5039Z" fill="#F58631"/>
<path d="M41.501 46C42.302 46 42.9447 44.6667 43 44C42.7521 44.1965 42.0312 44.7649 41.499 44.7649C40.9669 44.7649 40.2479 44.1965 40 44C40.0553 44.6667 40.698 46 41.501 46Z" fill="#E08464"/>
<defs>
<linearGradient id="paint0_linear_1_543" x1="41.5644" y1="70.5349" x2="41.5644" y2="45.3721" gradientUnits="userSpaceOnUse">
<stop stop-color="#FAD4AF"/>
<stop offset="1" stop-color="#F09E78"/>
</linearGradient>
<linearGradient id="paint1_linear_1_543" x1="41.5644" y1="38.7519" x2="41.5644" y2="13.7287" gradientUnits="userSpaceOnUse">
<stop stop-color="#FAD4AF"/>
<stop offset="1" stop-color="#F09E78"/>
</linearGradient>
</defs>
</svg>
