<svg width="200" height="200" viewBox="0 0 200 200" fill="none" xmlns="http://www.w3.org/2000/svg">
  <path d="M100 20C60 20 40 50 40 90C40 90 45 70 60 60C60 60 55 90 60 110C60 110 30 90 30 130C30 130 40 120 50 120C50 120 40 140 50 160C50 160 60 140 70 140C70 140 60 170 80 180C80 180 90 160 100 160C110 160 120 180 120 180C140 170 130 140 130 140C140 140 150 160 150 160C160 140 150 120 150 120C160 120 170 130 170 130C170 90 140 110 140 110C145 90 140 60 140 60C155 70 160 90 160 90C160 50 140 20 100 20Z" fill="#4A2C2A" />
</svg>

